<svg width="36" height="37" viewBox="0 0 36 37" fill="none" xmlns="http://www.w3.org/2000/svg">
<ellipse cx="18" cy="18.5569" rx="18" ry="18.4311" fill="#F44646"/>
<path d="M26.3406 25.5194C25.9768 25.5194 25.6809 25.2113 25.6809 24.8325V10.0248C25.6809 9.84427 25.5338 9.69119 25.3604 9.69119H12.0774C11.904 9.69119 11.7569 9.84427 11.7569 10.0248V24.2673C11.7569 24.6461 11.461 24.9542 11.0972 24.9542C10.7334 24.9542 10.4375 24.6461 10.4375 24.2673V10.0248C10.4375 9.08279 11.1726 8.31738 12.0774 8.31738H25.3604C26.2652 8.31738 27.0003 9.08279 27.0003 10.0248V24.8325C27.0003 25.2113 26.7044 25.5194 26.3406 25.5194Z" fill="white"/>
<path d="M24.5026 27.7724C24.5026 27.7724 24.5007 27.7724 24.4988 27.7724H10.5975C9.91521 27.7724 9.32146 27.5251 8.8785 27.06C8.00578 26.1396 7.99824 24.6971 8.00013 24.5342C8.00578 24.1573 8.29794 23.8551 8.65985 23.8551H22.2162C22.399 23.8551 22.5743 23.9336 22.6987 24.0749C22.8231 24.2143 22.8872 24.4027 22.874 24.593C22.874 24.597 22.8307 25.4448 23.3 25.961C23.5658 26.2553 23.9579 26.3986 24.4988 26.3986H24.5007H24.5026C24.8664 26.3986 25.1623 26.7067 25.1623 27.0855C25.1623 27.4643 24.8664 27.7724 24.5026 27.7724ZM9.40439 25.2309C9.47602 25.539 9.60419 25.8707 9.81908 26.0983C10.0132 26.3005 10.2677 26.4006 10.5957 26.4006H21.9787C21.7544 25.9963 21.6451 25.5763 21.5942 25.2328H9.40439V25.2309Z" fill="white"/>
<path d="M24.2991 27.7724C23.3152 27.7724 22.5631 27.4584 22.0599 26.8363C21.2776 25.8667 21.468 24.5695 21.4906 24.4242C21.5528 24.0514 21.8921 23.8001 22.254 23.8649C22.6121 23.9297 22.8515 24.2829 22.7912 24.6558C22.7874 24.6794 22.6762 25.4703 23.0739 25.9551C23.3133 26.2475 23.7242 26.3966 24.2973 26.3966C24.776 26.3966 25.1266 26.2828 25.3377 26.061C25.6883 25.6921 25.6827 25.0111 25.6789 24.646V24.542V9.82655C25.6789 9.44777 25.9748 9.13965 26.3386 9.13965C26.7024 9.13965 26.9983 9.44777 26.9983 9.82655V24.6342C27.004 25.1602 27.0134 26.2553 26.2745 27.0306C25.8071 27.5212 25.1417 27.7724 24.2991 27.7724Z" fill="white"/>
<path d="M22.4896 13.6791H14.9688C14.605 13.6791 14.3091 13.371 14.3091 12.9922C14.3091 12.6134 14.605 12.3053 14.9688 12.3053H22.4896C22.8534 12.3053 23.1494 12.6134 23.1494 12.9922C23.1494 13.371 22.8553 13.6791 22.4896 13.6791Z" fill="white"/>
<path d="M22.4896 17.6808H14.9688C14.605 17.6808 14.3091 17.3727 14.3091 16.9939C14.3091 16.6151 14.605 16.307 14.9688 16.307H22.4896C22.8534 16.307 23.1494 16.6151 23.1494 16.9939C23.1494 17.3727 22.8553 17.6808 22.4896 17.6808Z" fill="white"/>
<path d="M22.4896 21.6806H14.9688C14.605 21.6806 14.3091 21.3724 14.3091 20.9937C14.3091 20.6149 14.605 20.3068 14.9688 20.3068H22.4896C22.8534 20.3068 23.1494 20.6149 23.1494 20.9937C23.1494 21.3744 22.8553 21.6806 22.4896 21.6806Z" fill="white"/>
</svg>
