<svg width="38" height="30" viewBox="0 0 38 30" fill="none" xmlns="http://www.w3.org/2000/svg">
<path d="M1.70833 2.11667L3.895 0L32.4583 27.8667L30.2887 30L25.0271 24.8667C23.0625 25.5 20.9783 25.8333 18.7917 25.8333C10.25 25.8333 2.95542 20.65 0 13.3333C1.17875 10.4 3.05792 7.81667 5.44958 5.76667L1.70833 2.11667ZM18.7917 8.33333C20.1509 8.33333 21.4545 8.86012 22.4156 9.7978C23.3767 10.7355 23.9167 12.0073 23.9167 13.3333C23.9175 13.9009 23.8193 14.4646 23.6262 15L17.0833 8.61667C17.6322 8.42831 18.2099 8.33249 18.7917 8.33333ZM18.7917 0.833333C27.3333 0.833333 34.6279 6.01667 37.5833 13.3333C36.1883 16.7882 33.8191 19.7872 30.75 21.9833L28.3242 19.6C30.6867 18.0057 32.5921 15.8485 33.8592 13.3333C32.4782 10.5831 30.3341 8.26605 27.6705 6.64559C25.0069 5.02513 21.9307 4.16627 18.7917 4.16667C16.9296 4.16667 15.1017 4.46667 13.3933 5L10.7625 2.45C13.2225 1.41667 15.9387 0.833333 18.7917 0.833333ZM3.72417 13.3333C5.10509 16.0836 7.24924 18.4006 9.91284 20.0211C12.5764 21.6415 15.6526 22.5004 18.7917 22.5C19.9704 22.5 21.1321 22.3833 22.2083 22.15L18.3133 18.3333C17.1246 18.209 16.0153 17.6915 15.17 16.8667C14.3246 16.042 13.7941 14.9597 13.6667 13.8L7.85833 8.11667C6.16708 9.53333 4.74917 11.3 3.72417 13.3333Z" fill="#666666"/>
</svg>
