<svg width="1076" height="357" viewBox="0 0 1076 357" fill="none" xmlns="http://www.w3.org/2000/svg">
<path d="M139.613 73.4C139.613 84.4667 138.28 94.5333 135.613 103.6C132.947 112.533 128.813 120.267 123.213 126.8C117.613 133.333 110.413 138.333 101.613 141.8C92.9466 145.267 82.48 147 70.2133 147C58.2133 147 47.8133 145.267 39.0133 141.8C30.3466 138.333 23.1466 133.333 17.4133 126.8C11.8133 120.267 7.61328 112.533 4.81328 103.6C2.14662 94.5333 0.813282 84.4 0.813282 73.2C0.813282 58.4 3.27995 45.5333 8.21328 34.6C13.1466 23.5333 20.7466 15 31.0133 9C41.28 3 54.4133 -4.76837e-06 70.4133 -4.76837e-06C86.68 -4.76837e-06 99.88 3.06666 110.013 9.2C120.28 15.2 127.747 23.7333 132.413 34.8C137.213 45.7333 139.613 58.6 139.613 73.4ZM41.4133 73.4C41.4133 81.9333 42.3466 89.3333 44.2133 95.6C46.2133 101.733 49.3466 106.467 53.6133 109.8C57.88 113.133 63.4133 114.8 70.2133 114.8C77.28 114.8 82.88 113.133 87.0133 109.8C91.2799 106.467 94.3466 101.733 96.2133 95.6C98.08 89.3333 99.0133 81.9333 99.0133 73.4C99.0133 60.4667 96.88 50.2667 92.6133 42.8C88.3466 35.3333 80.9466 31.6 70.4133 31.6C63.4799 31.6 57.88 33.3333 53.6133 36.8C49.3466 40.1333 46.2133 44.9333 44.2133 51.2C42.3466 57.3333 41.4133 64.7333 41.4133 73.4ZM212.188 2.19999C225.122 2.19999 235.855 3.79999 244.388 6.99999C253.055 10.2 259.522 14.9333 263.788 21.2C268.188 27.3333 270.388 35.0667 270.388 44.4C270.388 50.1333 269.388 55.4 267.388 60.2C265.522 65 262.788 69.2667 259.188 73C255.588 76.7333 251.255 80 246.188 82.8L287.788 145H243.988L213.788 93H203.988V145H165.388V2.19999H212.188ZM211.588 31.4H203.988V64H211.188C215.188 64 218.655 63.4667 221.588 62.4C224.655 61.2 227.055 59.3333 228.788 56.8C230.522 54.1333 231.388 50.6 231.388 46.2C231.388 43.1333 230.722 40.5333 229.388 38.4C228.055 36.1333 225.922 34.4 222.988 33.2C220.055 32 216.255 31.4 211.588 31.4ZM358.14 61.4H419.74V138.4C412.407 140.933 403.94 143 394.34 144.6C384.873 146.2 374.94 147 364.54 147C350.807 147 338.74 144.333 328.34 139C318.073 133.667 310.007 125.533 304.14 114.6C298.407 103.667 295.54 89.8667 295.54 73.2C295.54 58.2667 298.407 45.3333 304.14 34.4C309.873 23.4667 318.273 15.0667 329.34 9.2C340.54 3.19999 354.273 0.199993 370.54 0.199993C379.473 0.199993 387.94 1.06666 395.94 2.79999C403.94 4.39999 410.873 6.53332 416.74 9.2L404.54 39.4C399.473 36.8667 394.14 35 388.54 33.8C382.94 32.4667 377.007 31.8 370.74 31.8C362.207 31.8 355.34 33.7333 350.14 37.6C344.94 41.4667 341.14 46.6 338.74 53C336.473 59.4 335.34 66.4667 335.34 74.2C335.34 83 336.607 90.4667 339.14 96.6C341.673 102.733 345.34 107.4 350.14 110.6C354.94 113.667 360.807 115.2 367.74 115.2C369.34 115.2 371.14 115.133 373.14 115C375.14 114.867 377.073 114.667 378.94 114.4C380.94 114.133 382.473 113.867 383.54 113.6V91.2H358.14V61.4ZM536.387 145L529.387 118.2H482.987L475.787 145H433.387L479.987 1.6H531.387L578.587 145H536.387ZM515.187 63.2C514.52 60.6667 513.587 57.0667 512.387 52.4C511.187 47.6 509.987 42.6667 508.787 37.6C507.587 32.5333 506.653 28.4 505.987 25.2C505.453 28.4 504.587 32.4 503.387 37.2C502.32 42 501.187 46.7333 499.987 51.4C498.92 56.0667 497.987 60 497.187 63.2L490.987 86.6H521.387L515.187 63.2ZM729.904 145H679.304L627.104 44.4H626.304C626.571 46.6667 626.771 49.3333 626.904 52.4C627.171 55.4667 627.371 58.6667 627.504 62C627.637 65.3333 627.771 68.6 627.904 71.8C628.037 75 628.104 77.9333 628.104 80.6V145H593.904V2.19999H644.304L696.304 101.4H696.904C696.771 99.1333 696.571 96.5333 696.304 93.6C696.171 90.5333 696.037 87.4667 695.904 84.4C695.771 81.2 695.637 78.0667 695.504 75C695.504 71.9333 695.504 69.2 695.504 66.8V2.19999H729.904V145ZM826.501 145H752.101V123L769.901 116.2V30.8L752.101 24.2V2.19999H826.501V24.2L808.701 30.8V116.2L826.501 123V145ZM422.071 355H310.871V331.2L372.671 243.4H312.271V212.2H420.471V236L358.671 323.8H422.071V355ZM530.137 355L523.137 328.2H476.737L469.537 355H427.137L473.737 211.6H525.137L572.337 355H530.137ZM508.937 273.2C508.27 270.667 507.337 267.067 506.137 262.4C504.937 257.6 503.737 252.667 502.537 247.6C501.337 242.533 500.403 238.4 499.737 235.2C499.203 238.4 498.337 242.4 497.137 247.2C496.07 252 494.937 256.733 493.737 261.4C492.67 266.067 491.737 270 490.937 273.2L484.737 296.6H515.137L508.937 273.2ZM636.591 355H597.991V243.8H563.191V212.2H671.391V243.8H636.591V355ZM757.555 355H683.155V333L700.955 326.2V240.8L683.155 234.2V212.2H757.555V234.2L739.755 240.8V326.2L757.555 333V355ZM913.441 283.4C913.441 294.467 912.108 304.533 909.441 313.6C906.775 322.533 902.641 330.267 897.041 336.8C891.441 343.333 884.241 348.333 875.441 351.8C866.775 355.267 856.308 357 844.041 357C832.041 357 821.641 355.267 812.841 351.8C804.175 348.333 796.975 343.333 791.241 336.8C785.641 330.267 781.441 322.533 778.641 313.6C775.975 304.533 774.641 294.4 774.641 283.2C774.641 268.4 777.108 255.533 782.041 244.6C786.975 233.533 794.575 225 804.841 219C815.108 213 828.241 210 844.241 210C860.508 210 873.708 213.067 883.841 219.2C894.108 225.2 901.575 233.733 906.241 244.8C911.041 255.733 913.441 268.6 913.441 283.4ZM815.241 283.4C815.241 291.933 816.175 299.333 818.041 305.6C820.041 311.733 823.175 316.467 827.441 319.8C831.708 323.133 837.241 324.8 844.041 324.8C851.108 324.8 856.708 323.133 860.841 319.8C865.108 316.467 868.175 311.733 870.041 305.6C871.908 299.333 872.841 291.933 872.841 283.4C872.841 270.467 870.708 260.267 866.441 252.8C862.175 245.333 854.775 241.6 844.241 241.6C837.308 241.6 831.708 243.333 827.441 246.8C823.175 250.133 820.041 254.933 818.041 261.2C816.175 267.333 815.241 274.733 815.241 283.4ZM1075.22 355H1024.62L972.416 254.4H971.616C971.883 256.667 972.083 259.333 972.216 262.4C972.483 265.467 972.683 268.667 972.816 272C972.95 275.333 973.083 278.6 973.216 281.8C973.35 285 973.416 287.933 973.416 290.6V355H939.216V212.2H989.616L1041.62 311.4H1042.22C1042.08 309.133 1041.88 306.533 1041.62 303.6C1041.48 300.533 1041.35 297.467 1041.22 294.4C1041.08 291.2 1040.95 288.067 1040.82 285C1040.82 281.933 1040.82 279.2 1040.82 276.8V212.2H1075.22V355Z" fill="#F4F4F4"/>
</svg>
