<svg width="14" height="13" viewBox="0 0 14 13" fill="none" xmlns="http://www.w3.org/2000/svg">
<g id="Group 33593">
<path id="Vector" d="M11.6111 6H1.88889C1.12183 6 0.5 6.49746 0.5 7.11111V11C0.5 11.6136 1.12183 12.1111 1.88889 12.1111H11.6111C12.3782 12.1111 13 11.6136 13 11V7.11111C13 6.49746 12.3782 6 11.6111 6Z" stroke="currentColor" stroke-linecap="round" stroke-linejoin="round"/>
<path id="Vector_2" d="M3.27832 6V3.77778C3.27832 3.04107 3.64414 2.33453 4.29531 1.81359C4.94648 1.29266 5.82965 1 6.75054 1C7.67143 1 8.55461 1.29266 9.20577 1.81359C9.85694 2.33453 10.2228 3.04107 10.2228 3.77778V6" stroke="currentColor" stroke-linecap="round" stroke-linejoin="round"/>
</g>
</svg>
