<svg width="40" height="28" viewBox="0 0 40 28" fill="none" xmlns="http://www.w3.org/2000/svg">
<path fill-rule="evenodd" clip-rule="evenodd" d="M3.91667 14.002C3.92254 13.97 3.94996 13.794 4.10271 13.448C4.27112 13.066 4.54333 12.586 4.93304 12.032C5.71246 10.926 6.87767 9.648 8.35033 8.436C11.3133 5.992 15.2985 4 19.5833 4C23.8682 4 27.8534 5.992 30.8163 8.432C32.289 9.644 33.4542 10.922 34.2336 12.028C34.6253 12.582 34.8955 13.062 35.064 13.444C35.2167 13.79 35.2441 13.966 35.25 13.998V14C35.2441 14.032 35.2167 14.208 35.064 14.554C34.8328 15.0524 34.5547 15.5266 34.2336 15.97C33.4542 17.076 32.289 18.354 30.8163 19.566C27.8553 22.008 23.8701 24 19.5833 24C15.2985 24 11.3133 22.008 8.35033 19.568C6.87767 18.356 5.71246 17.078 4.93304 15.972C4.61169 15.5288 4.33359 15.0545 4.10271 14.556C4.01712 14.3805 3.95456 14.1942 3.91667 14.002ZM19.5833 0C14.1333 0 9.306 2.508 5.89262 5.318C4.17517 6.73 2.75929 8.266 1.75467 9.692C1.27895 10.352 0.868928 11.0588 0.530708 11.802C0.240875 12.46 0 13.222 0 14C0 14.776 0.240875 15.542 0.52875 16.198C0.832292 16.882 1.25333 17.598 1.75467 18.308C2.75929 19.734 4.17517 21.268 5.89262 22.682C9.306 25.492 14.1333 28 19.5833 28C25.0334 28 29.8607 25.492 33.274 22.682C34.9915 21.27 36.4074 19.734 37.412 18.308C37.9153 17.596 38.3344 16.882 38.636 16.198C38.9258 15.542 39.1667 14.778 39.1667 14C39.1667 13.224 38.9258 12.458 38.6379 11.802C38.2986 11.059 37.888 10.3522 37.412 9.692C36.4074 8.266 34.9915 6.732 33.274 5.318C29.8607 2.508 25.0334 0 19.5833 0ZM17.625 14C17.625 13.4696 17.8313 12.9609 18.1986 12.5858C18.5658 12.2107 19.064 12 19.5833 12C20.1027 12 20.6008 12.2107 20.9681 12.5858C21.3353 12.9609 21.5417 13.4696 21.5417 14C21.5417 14.5304 21.3353 15.0391 20.9681 15.4142C20.6008 15.7893 20.1027 16 19.5833 16C19.064 16 18.5658 15.7893 18.1986 15.4142C17.8313 15.0391 17.625 14.5304 17.625 14ZM19.5833 8C18.0252 8 16.5309 8.63214 15.4291 9.75736C14.3273 10.8826 13.7083 12.4087 13.7083 14C13.7083 15.5913 14.3273 17.1174 15.4291 18.2426C16.5309 19.3679 18.0252 20 19.5833 20C21.1415 20 22.6358 19.3679 23.7376 18.2426C24.8394 17.1174 25.4583 15.5913 25.4583 14C25.4583 12.4087 24.8394 10.8826 23.7376 9.75736C22.6358 8.63214 21.1415 8 19.5833 8Z" fill="#666666"/>
</svg>
