<svg width="36" height="37" viewBox="0 0 36 37" fill="none" xmlns="http://www.w3.org/2000/svg">
<ellipse cx="18" cy="18.5569" rx="18" ry="18.4311" fill="#F44646"/>
<path d="M18.4995 10.1342C16.0022 10.1342 13.9702 12.2369 13.9702 14.8212C13.9702 17.4055 16.0022 19.5082 18.4995 19.5082C20.9968 19.5082 23.0288 17.4055 23.0288 14.8212C23.0288 12.2369 20.9968 10.1342 18.4995 10.1342ZM18.4995 17.8918C16.8639 17.8918 15.5328 16.5144 15.5328 14.8218C15.5328 13.1292 16.8639 11.7518 18.4995 11.7518C20.1351 11.7518 21.4662 13.1292 21.4662 14.8218C21.4662 16.5144 20.1351 17.8918 18.4995 17.8918Z" fill="white"/>
<path d="M18.4999 6.02478C13.8121 6.02478 9.99902 9.97066 9.99902 14.8217C9.99902 19.463 17.5663 29.3427 17.8885 29.761C18.0368 29.9538 18.2616 30.0657 18.4994 30.0657C18.7372 30.0657 18.9619 29.9538 19.1103 29.761C19.4324 29.3427 26.9997 19.463 26.9997 14.8217C27.0003 9.97066 23.1872 6.02478 18.4999 6.02478ZM18.4999 27.9419C16.113 24.7125 11.5616 17.9152 11.5616 14.8217C11.5616 10.8624 14.6738 7.6418 18.4999 7.6418C22.3255 7.6418 25.4383 10.8624 25.4383 14.8217C25.4377 17.9152 20.8863 24.7125 18.4999 27.9419Z" fill="white"/>
</svg>
