<svg width="22" height="22" viewBox="0 0 22 22" fill="none" xmlns="http://www.w3.org/2000/svg">
<path fill-rule="evenodd" clip-rule="evenodd" d="M22.0003 11.0002C22.0003 5.93741 17.8964 1.8335 12.8337 1.8335C7.77091 1.8335 3.66699 5.93741 3.66699 11.0002C3.66699 16.0629 7.77091 20.1668 12.8337 20.1668C17.8964 20.1668 22.0003 16.0629 22.0003 11.0002ZM12.8337 5.72933C13.016 5.72933 13.1909 5.80176 13.3198 5.93069C13.4487 6.05962 13.5212 6.23449 13.5212 6.41683V11.9168C13.5212 12.0992 13.4487 12.274 13.3198 12.403C13.1909 12.5319 13.016 12.6043 12.8337 12.6043C12.6513 12.6043 12.4765 12.5319 12.3475 12.403C12.2186 12.274 12.1462 12.0992 12.1462 11.9168V6.41683C12.1462 6.23449 12.2186 6.05962 12.3475 5.93069C12.4765 5.80176 12.6513 5.72933 12.8337 5.72933ZM12.8337 15.5835C13.0768 15.5835 13.3099 15.4869 13.4818 15.315C13.6537 15.1431 13.7503 14.9099 13.7503 14.6668C13.7503 14.4237 13.6537 14.1906 13.4818 14.0186C13.3099 13.8467 13.0768 13.7502 12.8337 13.7502C12.5905 13.7502 12.3574 13.8467 12.1855 14.0186C12.0136 14.1906 11.917 14.4237 11.917 14.6668C11.917 14.9099 12.0136 15.1431 12.1855 15.315C12.3574 15.4869 12.5905 15.5835 12.8337 15.5835Z" fill="#F24E1E"/>
</svg>
