<svg width="24" height="27" viewBox="0 0 24 27" fill="none" xmlns="http://www.w3.org/2000/svg">
<g filter="url(#filter0_d_529_2330)">
<path d="M18.6663 17.5V15.8333C18.6663 14.9493 18.3152 14.1014 17.69 13.4763C17.0649 12.8512 16.2171 12.5 15.333 12.5H8.66634C7.78229 12.5 6.93444 12.8512 6.30932 13.4763C5.6842 14.1014 5.33301 14.9493 5.33301 15.8333V17.5" stroke="#616161" stroke-width="2" stroke-linecap="round" stroke-linejoin="round"/>
<path d="M12.0003 9.16667C13.8413 9.16667 15.3337 7.67428 15.3337 5.83333C15.3337 3.99238 13.8413 2.5 12.0003 2.5C10.1594 2.5 8.66699 3.99238 8.66699 5.83333C8.66699 7.67428 10.1594 9.16667 12.0003 9.16667Z" stroke="#616161" stroke-width="2" stroke-linecap="round" stroke-linejoin="round"/>
</g>
<defs>
<filter id="filter0_d_529_2330" x="-2" y="0" width="28" height="28" filterUnits="userSpaceOnUse" color-interpolation-filters="sRGB">
<feFlood flood-opacity="0" result="BackgroundImageFix"/>
<feColorMatrix in="SourceAlpha" type="matrix" values="0 0 0 0 0 0 0 0 0 0 0 0 0 0 0 0 0 0 127 0" result="hardAlpha"/>
<feOffset dy="4"/>
<feGaussianBlur stdDeviation="2"/>
<feComposite in2="hardAlpha" operator="out"/>
<feColorMatrix type="matrix" values="0 0 0 0 0 0 0 0 0 0 0 0 0 0 0 0 0 0 0.25 0"/>
<feBlend mode="normal" in2="BackgroundImageFix" result="effect1_dropShadow_529_2330"/>
<feBlend mode="normal" in="SourceGraphic" in2="effect1_dropShadow_529_2330" result="shape"/>
</filter>
</defs>
</svg>
