<svg width="723" height="358" viewBox="0 0 723 358" fill="none" xmlns="http://www.w3.org/2000/svg">
<path d="M62.8352 62.1185H124.435V139.119C117.102 141.652 108.635 143.719 99.0352 145.319C89.5685 146.919 79.6352 147.719 69.2352 147.719C55.5018 147.719 43.4352 145.052 33.0352 139.719C22.7685 134.385 14.7018 126.252 8.83516 115.319C3.10182 104.385 0.235157 90.5852 0.235157 73.9185C0.235157 58.9852 3.10182 46.0518 8.83516 35.1185C14.5685 24.1852 22.9685 15.7852 34.0352 9.9185C45.2352 3.9185 58.9685 0.918499 75.2352 0.918499C84.1685 0.918499 92.6352 1.78517 100.635 3.5185C108.635 5.1185 115.568 7.25183 121.435 9.9185L109.235 40.1185C104.168 37.5852 98.8352 35.7185 93.2352 34.5185C87.6352 33.1852 81.7018 32.5185 75.4352 32.5185C66.9018 32.5185 60.0352 34.4518 54.8352 38.3185C49.6352 42.1852 45.8352 47.3185 43.4352 53.7185C41.1685 60.1185 40.0352 67.1852 40.0352 74.9185C40.0352 83.7185 41.3018 91.1852 43.8352 97.3185C46.3685 103.452 50.0352 108.119 54.8352 111.319C59.6352 114.385 65.5018 115.919 72.4352 115.919C74.0352 115.919 75.8352 115.852 77.8352 115.719C79.8352 115.585 81.7685 115.385 83.6352 115.119C85.6352 114.852 87.1685 114.585 88.2352 114.319V91.9185H62.8352V62.1185ZM200.282 2.9185C213.215 2.9185 223.949 4.5185 232.482 7.71849C241.149 10.9185 247.615 15.6518 251.882 21.9185C256.282 28.0518 258.482 35.7852 258.482 45.1185C258.482 50.8518 257.482 56.1185 255.482 60.9185C253.615 65.7185 250.882 69.9852 247.282 73.7185C243.682 77.4518 239.349 80.7185 234.282 83.5185L275.882 145.719H232.082L201.882 93.7185H192.082V145.719H153.482V2.9185H200.282ZM199.682 32.1185H192.082V64.7185H199.282C203.282 64.7185 206.749 64.1852 209.682 63.1185C212.749 61.9185 215.149 60.0518 216.882 57.5185C218.615 54.8518 219.482 51.3185 219.482 46.9185C219.482 43.8518 218.815 41.2518 217.482 39.1185C216.149 36.8518 214.015 35.1185 211.082 33.9185C208.149 32.7185 204.349 32.1185 199.682 32.1185ZM373.634 145.719H288.834V2.9185H373.634V33.9185H327.434V56.3185H370.234V87.3185H327.434V114.319H373.634V145.719ZM483.399 145.719H398.599V2.9185H483.399V33.9185H437.199V56.3185H479.999V87.3185H437.199V114.319H483.399V145.719ZM293.142 355.719H254.542V244.518H219.742V212.918H327.942V244.518H293.142V355.719ZM414.106 355.719H339.706V333.719L357.506 326.919V241.518L339.706 234.918V212.918H414.106V234.918L396.306 241.518V326.919L414.106 333.719V355.719ZM572.392 355.719H521.792L469.592 255.119H468.792C469.059 257.385 469.259 260.052 469.392 263.118C469.659 266.185 469.859 269.385 469.992 272.719C470.126 276.052 470.259 279.319 470.392 282.519C470.526 285.719 470.592 288.652 470.592 291.319V355.719H436.392V212.918H486.792L538.792 312.119H539.392C539.259 309.852 539.059 307.252 538.792 304.319C538.659 301.252 538.526 298.185 538.392 295.119C538.259 291.919 538.126 288.785 537.992 285.719C537.992 282.652 537.992 279.919 537.992 277.518V212.918H572.392V355.719ZM660.589 272.119H722.189V349.119C714.856 351.652 706.389 353.719 696.789 355.319C687.322 356.919 677.389 357.719 666.989 357.719C653.256 357.719 641.189 355.052 630.789 349.719C620.522 344.385 612.456 336.252 606.589 325.319C600.856 314.385 597.989 300.585 597.989 283.919C597.989 268.985 600.856 256.052 606.589 245.118C612.322 234.185 620.722 225.785 631.789 219.919C642.989 213.918 656.722 210.918 672.989 210.918C681.922 210.918 690.389 211.785 698.389 213.519C706.389 215.118 713.322 217.252 719.189 219.919L706.989 250.119C701.922 247.585 696.589 245.718 690.989 244.518C685.389 243.185 679.456 242.518 673.189 242.518C664.656 242.518 657.789 244.452 652.589 248.319C647.389 252.185 643.589 257.319 641.189 263.719C638.922 270.119 637.789 277.185 637.789 284.919C637.789 293.719 639.056 301.185 641.589 307.319C644.122 313.452 647.789 318.119 652.589 321.319C657.389 324.385 663.256 325.919 670.189 325.919C671.789 325.919 673.589 325.852 675.589 325.719C677.589 325.585 679.522 325.385 681.389 325.119C683.389 324.852 684.922 324.585 685.989 324.319V301.919H660.589V272.119Z" fill="#F4F4F4"/>
</svg>
