<svg width="1302" height="790" viewBox="0 0 1302 790" fill="none" xmlns="http://www.w3.org/2000/svg">
<rect x="0.5" y="1.41016" width="1301" height="787.443" stroke="#D1D1D1"/>
<path d="M86.1031 617.689V630.809H84.0431V617.689H86.1031ZM73.5831 623.409C73.5831 625.049 74.7631 626.149 76.3631 626.149C77.9431 626.149 79.1431 625.049 79.1431 623.409C79.1431 621.749 77.9431 620.669 76.3631 620.669C74.7631 620.669 73.5831 621.749 73.5831 623.409ZM81.1431 623.409C81.1431 626.029 79.0831 627.929 76.3631 627.929C73.6431 627.929 71.5631 626.029 71.5631 623.409C71.5631 620.769 73.6431 618.889 76.3631 618.889C79.0831 618.889 81.1431 620.769 81.1431 623.409ZM76.3831 633.729H86.6231V635.409H74.3031V629.489H76.3831V633.729ZM95.9416 619.189V622.149C95.9416 625.369 97.6216 628.629 100.342 629.969L99.0816 631.609C97.1416 630.609 95.7016 628.649 94.9216 626.289C94.1416 628.789 92.6216 630.889 90.5616 631.949L89.3016 630.289C92.1216 628.909 93.8816 625.489 93.8816 622.149V619.189H95.9416ZM106.422 624.849V626.549H103.602V635.749H101.542V617.689H103.602V624.849H106.422ZM117.56 625.429L115.54 625.209C115.9 623.269 115.96 621.849 115.98 620.729H108.92V619.049H118V620.089C118 621.309 118 623.089 117.56 625.429ZM119.06 626.329L119.2 627.829C115.44 628.489 111.18 628.589 108.04 628.589L107.82 626.909C108.9 626.909 110.14 626.909 111.42 626.869V623.169H113.46V626.809C115.34 626.729 117.28 626.609 119.06 626.329ZM112.62 630.049V633.729H122.82V635.409H110.54V630.049H112.62ZM122.24 623.409H124.64V625.109H122.24V631.249H120.16V617.689H122.24V623.409ZM129.518 625.989V629.789C132.378 629.769 134.878 629.629 137.738 629.169L137.958 630.849C134.858 631.389 132.158 631.489 128.978 631.489H127.438V624.329H133.738V620.969H127.398V619.289H135.818V625.989H129.518ZM139.238 617.649H141.318V635.789H139.238V617.649ZM91.0616 651.749L90.4416 650.189C94.1016 649.929 96.3616 648.629 96.6016 647.009H91.2416V645.389H96.7416V643.669H98.8016V645.389H104.302V647.009H98.9416C99.1816 648.629 101.442 649.929 105.102 650.189L104.462 651.749C101.322 651.489 98.9016 650.469 97.7616 648.869C96.6416 650.469 94.2216 651.489 91.0616 651.749ZM97.7416 660.189C100.422 660.189 101.882 659.689 101.882 658.709C101.882 657.729 100.422 657.209 97.7416 657.209C95.0816 657.209 93.6216 657.729 93.6216 658.709C93.6216 659.689 95.0816 660.189 97.7416 660.189ZM97.7416 655.689C101.662 655.689 103.962 656.749 103.962 658.709C103.962 660.669 101.662 661.749 97.7416 661.749C93.8416 661.749 91.5216 660.669 91.5216 658.709C91.5216 656.749 93.8416 655.689 97.7416 655.689ZM98.8016 652.909H105.942V654.549H89.6016V652.909H96.7416V650.929H98.8016V652.909ZM120.3 650.129V646.289H112.04V650.129H120.3ZM122.34 644.649V651.789H110V644.649H122.34ZM124.38 654.009V655.669H117.16V661.749H115.1V655.669H108V654.009H124.38ZM105.962 678.509V680.209H98.7616V687.749H96.6816V680.209H89.6216V678.509H101.362C101.882 675.989 101.882 674.109 101.882 672.449H91.5816V670.789H103.902V672.369C103.902 674.069 103.902 675.949 103.442 678.509H105.962ZM110.54 673.309V681.409H113.66V673.309H110.54ZM108.62 683.049V671.669H115.58V683.049H108.62ZM121.48 669.689H123.44V687.729H121.48V678.409H119.42V686.889H117.48V670.029H119.42V676.729H121.48V669.689ZM101.002 697.789V699.449H90.0816V697.789H94.5216V695.729H96.5816V697.789H101.002ZM93.1016 703.689C93.1016 704.809 94.1016 705.489 95.5616 705.489C97.0016 705.489 98.0016 704.809 98.0016 703.689C98.0016 702.589 97.0016 701.909 95.5616 701.909C94.1016 701.909 93.1016 702.589 93.1016 703.689ZM96.5816 706.989V708.689C98.2016 708.589 99.8416 708.489 101.382 708.269L101.522 709.769C97.5416 710.449 93.2616 710.509 89.9816 710.509L89.7216 708.809C91.1616 708.809 92.8216 708.809 94.5216 708.749V706.989C92.4816 706.669 91.1416 705.429 91.1416 703.689C91.1416 701.669 92.9416 700.329 95.5616 700.329C98.1616 700.329 99.9616 701.669 99.9616 703.689C99.9616 705.449 98.6216 706.669 96.5816 706.989ZM102.402 695.669H104.482V713.749H102.402V695.669ZM117.84 700.569V696.129H119.76V712.869H117.84V706.789H114.88V705.109H117.84V702.249H115.2C114.36 705.289 112.46 707.909 109.08 709.929L107.9 708.469C111.62 706.209 113.42 703.269 113.72 699.569H108.78V697.909H115.76C115.76 698.829 115.7 699.729 115.56 700.569H117.84ZM121.48 695.689H123.46V713.749H121.48V695.689Z" fill="#666666"/>
<path d="M337.824 626.209L337.224 628.189H341.244L340.664 626.209C340.164 624.609 339.724 622.969 339.284 621.309H339.184C338.764 622.989 338.304 624.609 337.824 626.209ZM333.064 634.209L337.944 619.469H340.624L345.504 634.209H343.044L341.804 630.009H336.684L335.424 634.209H333.064ZM352.533 634.469C349.273 634.469 347.053 632.689 347.053 627.889V619.469H349.373V628.049C349.373 631.369 350.693 632.449 352.533 632.449C354.393 632.449 355.753 631.369 355.753 628.049V619.469H357.993V627.889C357.993 632.689 355.793 634.469 352.533 634.469ZM364.801 634.209V621.429H360.481V619.469H371.461V621.429H367.121V634.209H364.801ZM379.042 634.469C375.262 634.469 372.642 631.529 372.642 626.789C372.642 622.049 375.262 619.209 379.042 619.209C382.822 619.209 385.462 622.049 385.462 626.789C385.462 631.529 382.822 634.469 379.042 634.469ZM379.042 632.449C381.482 632.449 383.082 630.229 383.082 626.789C383.082 623.329 381.482 621.229 379.042 621.229C376.602 621.229 375.022 623.329 375.022 626.789C375.022 630.229 376.602 632.449 379.042 632.449ZM394.26 634.469C390.56 634.469 387.72 631.709 387.72 626.889C387.72 622.089 390.64 619.209 394.36 619.209C396.2 619.209 397.64 620.089 398.54 621.069L397.28 622.549C396.52 621.769 395.6 621.229 394.4 621.229C391.86 621.229 390.1 623.349 390.1 626.809C390.1 630.309 391.74 632.449 394.34 632.449C395.7 632.449 396.72 631.849 397.6 630.889L398.84 632.349C397.66 633.709 396.16 634.469 394.26 634.469ZM404.27 626.209L403.67 628.189H407.69L407.11 626.209C406.61 624.609 406.17 622.969 405.73 621.309H405.63C405.21 622.989 404.75 624.609 404.27 626.209ZM399.51 634.209L404.39 619.469H407.07L411.95 634.209H409.49L408.25 630.009H403.13L401.87 634.209H399.51ZM413.891 634.209V619.469H417.711C422.231 619.469 424.811 621.989 424.811 626.789C424.811 631.569 422.231 634.209 417.831 634.209H413.891ZM416.211 632.309H417.551C420.711 632.309 422.411 630.449 422.411 626.789C422.411 623.109 420.711 621.369 417.551 621.369H416.211V632.309ZM356.082 647.049V655.649C359.442 655.629 361.602 655.529 364.022 655.069L364.242 656.789C361.622 657.269 359.282 657.369 355.542 657.369H354.042V645.349H362.642V647.049H356.082ZM365.702 643.669H367.782V661.789H365.702V643.669ZM377.641 647.189V648.929C377.641 651.729 379.421 654.929 382.161 656.229L381.021 657.849C379.001 656.889 377.461 654.889 376.641 652.609C375.841 655.129 374.241 657.289 372.161 658.309L370.981 656.669C373.741 655.349 375.581 651.929 375.581 648.929V647.189H371.641V645.489H381.461V647.189H377.641ZM388.121 650.809V652.509H385.301V661.749H383.241V643.689H385.301V650.809H388.121ZM404.599 643.689V656.809H402.539V643.689H404.599ZM392.079 649.409C392.079 651.049 393.259 652.149 394.859 652.149C396.439 652.149 397.639 651.049 397.639 649.409C397.639 647.749 396.439 646.669 394.859 646.669C393.259 646.669 392.079 647.749 392.079 649.409ZM399.639 649.409C399.639 652.029 397.579 653.929 394.859 653.929C392.139 653.929 390.059 652.029 390.059 649.409C390.059 646.769 392.139 644.889 394.859 644.889C397.579 644.889 399.639 646.769 399.639 649.409ZM394.879 659.729H405.119V661.409H392.799V655.489H394.879V659.729ZM335.562 686.469C333.542 686.469 331.662 685.669 330.322 684.309L331.682 682.709C332.742 683.769 334.182 684.449 335.602 684.449C337.382 684.449 338.382 683.609 338.382 682.369C338.382 681.029 337.382 680.609 336.022 680.009L333.982 679.129C332.562 678.529 330.982 677.409 330.982 675.269C330.982 672.949 333.022 671.209 335.822 671.209C337.542 671.209 339.162 671.929 340.282 673.069L339.062 674.549C338.142 673.729 337.122 673.229 335.822 673.229C334.322 673.229 333.342 673.949 333.342 675.109C333.342 676.389 334.522 676.869 335.722 677.349L337.742 678.209C339.482 678.949 340.742 680.029 340.742 682.189C340.742 684.549 338.782 686.469 335.562 686.469ZM347.73 686.469C345.01 686.469 342.55 684.369 342.55 680.709C342.55 677.049 345.01 674.929 347.73 674.929C350.45 674.929 352.91 677.049 352.91 680.709C352.91 684.369 350.45 686.469 347.73 686.469ZM347.73 684.589C349.47 684.589 350.55 683.049 350.55 680.709C350.55 678.389 349.47 676.829 347.73 676.829C346.01 676.829 344.93 678.389 344.93 680.709C344.93 683.049 346.01 684.589 347.73 684.589ZM357.895 686.469C356.235 686.469 355.615 685.409 355.615 683.629V670.269H357.915V683.749C357.915 684.369 358.175 684.589 358.455 684.589C358.555 684.589 358.635 684.589 358.835 684.549L359.135 686.289C358.855 686.389 358.475 686.469 357.895 686.469ZM361.572 686.209V675.209H363.872V686.209H361.572ZM362.712 673.149C361.872 673.149 361.292 672.609 361.292 671.769C361.292 670.949 361.872 670.409 362.712 670.409C363.552 670.409 364.152 670.949 364.152 671.769C364.152 672.609 363.552 673.149 362.712 673.149ZM371.114 686.469C368.354 686.469 366.574 684.369 366.574 680.709C366.574 677.149 368.834 674.929 371.294 674.929C372.554 674.929 373.354 675.409 374.254 676.169L374.154 674.349V670.269H376.454V686.209H374.574L374.394 684.969H374.314C373.494 685.809 372.354 686.469 371.114 686.469ZM371.654 684.569C372.574 684.569 373.354 684.149 374.154 683.229V677.849C373.334 677.109 372.554 676.849 371.734 676.849C370.194 676.849 368.954 678.309 368.954 680.689C368.954 683.189 369.934 684.569 371.654 684.569ZM384.604 686.209V671.469H393.304V673.429H386.924V677.529H392.324V679.489H386.924V684.249H393.524V686.209H384.604ZM399.981 686.469C397.221 686.469 395.441 684.369 395.441 680.709C395.441 677.149 397.701 674.929 400.161 674.929C401.421 674.929 402.221 675.409 403.121 676.169L403.021 674.349V670.269H405.321V686.209H403.441L403.261 684.969H403.181C402.361 685.809 401.221 686.469 399.981 686.469ZM400.521 684.569C401.441 684.569 402.221 684.149 403.021 683.229V677.849C402.201 677.109 401.421 676.849 400.601 676.849C399.061 676.849 397.821 678.309 397.821 680.689C397.821 683.189 398.801 684.569 400.521 684.569ZM412.539 691.149C409.899 691.149 407.979 690.169 407.979 688.249C407.979 687.329 408.559 686.469 409.579 685.849V685.749C409.019 685.409 408.579 684.829 408.579 683.929C408.579 683.069 409.199 682.329 409.819 681.889V681.809C409.059 681.229 408.359 680.189 408.359 678.869C408.359 676.389 410.339 674.929 412.619 674.929C413.239 674.929 413.799 675.049 414.219 675.209H418.119V676.929H416.019C416.439 677.369 416.739 678.109 416.739 678.949C416.739 681.349 414.919 682.729 412.619 682.729C412.119 682.729 411.559 682.609 411.079 682.389C410.719 682.709 410.479 683.009 410.479 683.549C410.479 684.209 410.919 684.629 412.319 684.629H414.339C416.939 684.629 418.299 685.429 418.299 687.309C418.299 689.429 416.059 691.149 412.539 691.149ZM412.619 681.249C413.759 681.249 414.699 680.349 414.699 678.869C414.699 677.409 413.779 676.549 412.619 676.549C411.459 676.549 410.539 677.389 410.539 678.869C410.539 680.349 411.479 681.249 412.619 681.249ZM412.879 689.629C414.799 689.629 416.079 688.689 416.079 687.669C416.079 686.749 415.359 686.469 414.019 686.469H412.359C411.839 686.469 411.339 686.409 410.879 686.309C410.219 686.789 409.939 687.349 409.939 687.909C409.939 688.989 411.059 689.629 412.879 689.629ZM424.59 686.469C421.61 686.469 419.23 684.349 419.23 680.709C419.23 677.149 421.69 674.929 424.25 674.929C427.17 674.929 428.75 677.029 428.75 680.129C428.75 680.589 428.69 681.029 428.63 681.309H421.49C421.67 683.409 422.99 684.669 424.89 684.669C425.87 684.669 426.71 684.369 427.51 683.849L428.31 685.309C427.29 685.989 426.03 686.469 424.59 686.469ZM421.47 679.709H426.75C426.75 677.829 425.89 676.729 424.29 676.729C422.91 676.729 421.69 677.789 421.47 679.709ZM356.082 699.049V707.649C359.442 707.629 361.602 707.529 364.022 707.069L364.242 708.789C361.622 709.269 359.282 709.369 355.542 709.369H354.042V697.349H362.642V699.049H356.082ZM365.702 695.669H367.782V713.789H365.702V695.669ZM377.641 699.189V700.929C377.641 703.729 379.421 706.929 382.161 708.229L381.021 709.849C379.001 708.889 377.461 706.889 376.641 704.609C375.841 707.129 374.241 709.289 372.161 710.309L370.981 708.669C373.741 707.349 375.581 703.929 375.581 700.929V699.189H371.641V697.489H381.461V699.189H377.641ZM388.121 702.809V704.509H385.301V713.749H383.241V695.689H385.301V702.809H388.121ZM404.599 695.689V708.809H402.539V695.689H404.599ZM392.079 701.409C392.079 703.049 393.259 704.149 394.859 704.149C396.439 704.149 397.639 703.049 397.639 701.409C397.639 699.749 396.439 698.669 394.859 698.669C393.259 698.669 392.079 699.749 392.079 701.409ZM399.639 701.409C399.639 704.029 397.579 705.929 394.859 705.929C392.139 705.929 390.059 704.029 390.059 701.409C390.059 698.769 392.139 696.889 394.859 696.889C397.579 696.889 399.639 698.769 399.639 701.409ZM394.879 711.729H405.119V713.409H392.799V707.489H394.879V711.729Z" fill="#666666"/>
<path d="M627.725 634.469C625.405 634.469 623.905 633.549 622.925 632.449L624.045 630.969C624.905 631.849 626.005 632.589 627.525 632.589C629.185 632.589 630.325 631.689 630.325 630.249C630.325 628.669 629.285 627.649 625.965 627.649V625.949C628.865 625.949 629.825 624.889 629.825 623.509C629.825 622.229 628.965 621.449 627.565 621.449C626.425 621.449 625.465 622.009 624.625 622.849L623.425 621.409C624.585 620.349 625.945 619.609 627.645 619.609C630.285 619.609 632.145 620.969 632.145 623.329C632.145 624.989 631.165 626.089 629.605 626.669V626.769C631.305 627.189 632.645 628.429 632.645 630.369C632.645 632.949 630.425 634.469 627.725 634.469ZM635.711 634.209V619.469H639.531C644.051 619.469 646.631 621.989 646.631 626.789C646.631 631.569 644.051 634.209 639.651 634.209H635.711ZM638.031 632.309H639.371C642.531 632.309 644.231 630.449 644.231 626.789C644.231 623.109 642.531 621.369 639.371 621.369H638.031V632.309ZM649.496 634.209V623.209H651.376L651.556 624.749H651.616C652.556 623.749 653.656 622.929 655.016 622.929C656.656 622.929 657.576 623.689 658.056 624.949C659.136 623.789 660.256 622.929 661.636 622.929C663.936 622.929 665.016 624.489 665.016 627.289V634.209H662.716V627.569C662.716 625.669 662.116 624.909 660.876 624.909C660.116 624.909 659.316 625.409 658.396 626.409V634.209H656.096V627.569C656.096 625.669 655.516 624.909 654.256 624.909C653.516 624.909 652.696 625.409 651.796 626.409V634.209H649.496ZM670.944 634.469C669.044 634.469 667.704 633.229 667.704 631.289C667.704 628.929 669.704 627.709 674.284 627.209C674.264 625.929 673.804 624.809 672.184 624.809C671.024 624.809 669.944 625.329 669.004 625.929L668.144 624.369C669.284 623.649 670.824 622.929 672.584 622.929C675.324 622.929 676.584 624.669 676.584 627.589V634.209H674.704L674.524 632.949H674.444C673.444 633.809 672.264 634.469 670.944 634.469ZM671.644 632.649C672.604 632.649 673.384 632.189 674.284 631.369V628.669C671.024 629.049 669.924 629.889 669.924 631.129C669.924 632.209 670.664 632.649 671.644 632.649ZM678.407 634.209L681.967 628.469L678.667 623.209H681.147L682.467 625.409C682.787 626.029 683.147 626.649 683.507 627.269H683.587C683.887 626.649 684.207 626.029 684.507 625.409L685.667 623.209H688.067L684.767 628.729L688.307 634.209H685.807L684.367 631.869C684.007 631.229 683.627 630.549 683.227 629.929H683.127C682.787 630.549 682.447 631.209 682.107 631.869L680.827 634.209H678.407ZM632.082 647.049V655.649C635.442 655.629 637.602 655.529 640.022 655.069L640.242 656.789C637.622 657.269 635.282 657.369 631.542 657.369H630.042V645.349H638.642V647.049H632.082ZM641.702 643.669H643.782V661.789H641.702V643.669ZM653.641 647.189V648.929C653.641 651.729 655.421 654.929 658.161 656.229L657.021 657.849C655.001 656.889 653.461 654.889 652.641 652.609C651.841 655.129 650.241 657.289 648.161 658.309L646.981 656.669C649.741 655.349 651.581 651.929 651.581 648.929V647.189H647.641V645.489H657.461V647.189H653.641ZM664.121 650.809V652.509H661.301V661.749H659.241V643.689H661.301V650.809H664.121ZM680.599 643.689V656.809H678.539V643.689H680.599ZM668.079 649.409C668.079 651.049 669.259 652.149 670.859 652.149C672.439 652.149 673.639 651.049 673.639 649.409C673.639 647.749 672.439 646.669 670.859 646.669C669.259 646.669 668.079 647.749 668.079 649.409ZM675.639 649.409C675.639 652.029 673.579 653.929 670.859 653.929C668.139 653.929 666.059 652.029 666.059 649.409C666.059 646.769 668.139 644.889 670.859 644.889C673.579 644.889 675.639 646.769 675.639 649.409ZM670.879 659.729H681.119V661.409H668.799V655.489H670.879V659.729ZM607.385 672.969V678.529H611.545V672.969H607.385ZM610.485 683.909H617.705V685.609H601.305V683.909H608.425V680.189H602.725V678.529H605.325V672.969H602.665V671.309H616.245V672.969H613.585V678.529H616.205V680.189H610.485V683.909ZM628.923 683.929H636.083V685.629H619.723V683.929H626.843V680.529H621.743V671.049H634.103V672.729H623.843V674.909H633.703V676.529H623.843V678.889H634.263V680.529H628.923V683.929ZM648.722 677.549L647.622 679.149C645.682 678.469 644.242 677.069 643.482 675.349C642.702 677.309 641.182 678.829 639.062 679.589L637.982 677.969C640.822 676.989 642.382 674.629 642.382 672.069V670.489H644.462V672.049C644.462 674.389 646.022 676.629 648.722 677.549ZM650.182 685.869V683.969H642.702V685.869H650.182ZM650.182 682.369V680.449H652.222V687.529H640.662V680.449H642.702V682.369H650.182ZM654.722 673.609H652.222V675.569H654.722V677.269H652.222V679.629H650.162V669.689H652.222V671.909H654.722V673.609ZM659.68 673.049V681.649C663.04 681.629 665.2 681.529 667.62 681.069L667.84 682.789C665.22 683.269 662.88 683.369 659.14 683.369H657.64V671.349H666.24V673.049H659.68ZM669.3 669.669H671.38V687.789H669.3V669.669ZM681.238 673.189V674.929C681.238 677.729 683.018 680.929 685.758 682.229L684.618 683.849C682.598 682.889 681.058 680.889 680.238 678.609C679.438 681.129 677.838 683.289 675.758 684.309L674.578 682.669C677.338 681.349 679.178 677.929 679.178 674.929V673.189H675.238V671.489H685.058V673.189H681.238ZM691.718 676.809V678.509H688.898V687.749H686.838V669.689H688.898V676.809H691.718ZM708.197 669.689V682.809H706.137V669.689H708.197ZM695.677 675.409C695.677 677.049 696.857 678.149 698.457 678.149C700.037 678.149 701.237 677.049 701.237 675.409C701.237 673.749 700.037 672.669 698.457 672.669C696.857 672.669 695.677 673.749 695.677 675.409ZM703.237 675.409C703.237 678.029 701.177 679.929 698.457 679.929C695.737 679.929 693.657 678.029 693.657 675.409C693.657 672.769 695.737 670.889 698.457 670.889C701.177 670.889 703.237 672.769 703.237 675.409ZM698.477 685.729H708.717V687.409H696.397V681.489H698.477V685.729ZM607.005 695.669V704.849H604.945V695.669H607.005ZM594.465 700.349C594.465 701.789 595.625 702.729 597.185 702.729C598.765 702.729 599.945 701.789 599.945 700.349C599.945 698.909 598.765 697.969 597.185 697.969C595.625 697.969 594.465 698.909 594.465 700.349ZM601.945 700.349C601.945 702.729 599.925 704.409 597.185 704.409C594.465 704.409 592.465 702.729 592.465 700.349C592.465 697.969 594.465 696.269 597.185 696.269C599.925 696.269 601.945 697.969 601.945 700.349ZM597.225 711.909H607.545V713.529H595.205V708.789H604.965V707.289H595.165V705.669H607.005V710.309H597.225V711.909ZM613.184 703.829V707.809C615.964 707.789 618.124 707.689 620.604 707.269L620.784 708.949C618.084 709.409 615.744 709.509 612.584 709.509H611.164V702.169H617.204V698.949H611.124V697.289H619.224V703.829H613.184ZM623.424 695.649H625.484V713.769H623.424V704.129H620.264V702.429H623.424V695.649ZM644.582 704.509L643.682 706.209C640.742 705.609 638.202 703.729 637.022 701.249C635.842 703.729 633.302 705.609 630.362 706.209L629.482 704.509C633.042 703.849 635.942 701.069 635.942 698.209V696.849H638.122V698.209C638.122 701.089 641.022 703.869 644.582 704.509ZM628.922 709.729H645.282V711.429H628.922V709.729ZM661.861 705.229V706.889H649.341V697.149H661.721V698.809H651.441V701.129H661.321V702.749H651.441V705.229H661.861ZM647.321 709.849H663.701V711.529H647.321V709.849ZM668.879 699.049V707.649C672.239 707.629 674.399 707.529 676.819 707.069L677.039 708.789C674.419 709.269 672.079 709.369 668.339 709.369H666.839V697.349H675.439V699.049H668.879ZM678.499 695.669H680.579V713.789H678.499V695.669ZM690.438 699.189V700.929C690.438 703.729 692.218 706.929 694.958 708.229L693.818 709.849C691.798 708.889 690.258 706.889 689.438 704.609C688.638 707.129 687.038 709.289 684.958 710.309L683.778 708.669C686.538 707.349 688.378 703.929 688.378 700.929V699.189H684.438V697.489H694.258V699.189H690.438ZM700.918 702.809V704.509H698.098V713.749H696.038V695.689H698.098V702.809H700.918ZM717.396 695.689V708.809H715.336V695.689H717.396ZM704.876 701.409C704.876 703.049 706.056 704.149 707.656 704.149C709.236 704.149 710.436 703.049 710.436 701.409C710.436 699.749 709.236 698.669 707.656 698.669C706.056 698.669 704.876 699.749 704.876 701.409ZM712.436 701.409C712.436 704.029 710.376 705.929 707.656 705.929C704.936 705.929 702.856 704.029 702.856 701.409C702.856 698.769 704.936 696.889 707.656 696.889C710.376 696.889 712.436 698.769 712.436 701.409ZM707.676 711.729H717.916V713.409H705.596V707.489H707.676V711.729Z" fill="#666666"/>
<path d="M872.333 622.209V619.849H864.233V622.209H872.333ZM874.353 618.249V623.829H862.193V618.249H874.353ZM876.473 626.729H869.313V628.229H874.413V632.529H864.133V634.009H874.933V635.589H862.093V631.069H872.393V629.789H862.053V628.229H867.233V626.729H860.113V625.089H876.473V626.729ZM889.032 625.409L889.252 627.089C886.532 627.569 884.172 627.669 880.712 627.669H879.252V622.369H885.372V620.429H879.212V618.769H887.412V623.929H881.272V625.989C884.372 625.969 886.552 625.869 889.032 625.409ZM886.792 634.169C889.332 634.169 890.792 633.549 890.792 632.389C890.792 631.249 889.332 630.629 886.792 630.629C884.232 630.629 882.792 631.249 882.792 632.389C882.792 633.549 884.232 634.169 886.792 634.169ZM886.792 629.029C890.532 629.029 892.812 630.269 892.812 632.389C892.812 634.509 890.532 635.749 886.792 635.749C883.052 635.749 880.772 634.509 880.772 632.389C880.772 630.269 883.052 629.029 886.792 629.029ZM895.172 622.029H892.632V624.129H895.172V625.829H892.632V628.609H890.572V617.669H892.632V620.329H895.172V622.029ZM907.57 626.529L906.53 628.169C904.53 627.469 903.07 626.029 902.27 624.269C901.49 626.249 899.99 627.789 897.87 628.549L896.75 626.949C899.65 625.969 901.19 623.529 901.19 620.889V618.789H903.27V620.909C903.27 623.309 904.83 625.589 907.57 626.529ZM901.69 629.709V633.729H911.75V635.409H899.63V629.709H901.69ZM911.03 623.089H913.59V624.789H911.03V630.989H908.97V617.669H911.03V623.089ZM916.689 624.889L916.089 623.349C919.649 623.149 921.869 622.149 922.269 620.729H916.949V619.189H922.449V617.609H924.509V619.189H930.029V620.729H924.689C925.089 622.149 927.329 623.149 930.849 623.349L930.289 624.889C927.089 624.669 924.609 623.789 923.469 622.269C922.329 623.789 919.889 624.669 916.689 624.889ZM931.649 627.089H924.509V628.489H929.609V632.689H919.329V634.049H930.129V635.589H917.289V631.269H927.589V630.009H917.249V628.489H922.449V627.089H915.349V625.549H931.649V627.089ZM953.099 617.669V627.989H951.019V617.669H953.099ZM945.699 624.669V620.449H941.159V624.669H945.699ZM947.699 618.809V626.309H939.139V618.809H947.699ZM953.439 630.689H948.279C948.439 632.169 950.759 633.789 954.099 634.149L953.419 635.709C950.559 635.369 948.319 634.209 947.219 632.649C946.119 634.229 943.839 635.369 940.959 635.709L940.279 634.149C943.659 633.809 945.999 632.229 946.159 630.689H940.979V629.109H946.159V627.489H948.259V629.109H953.439V630.689ZM974.01 622.969H969.83C968.57 625.769 965.89 627.869 962.25 629.049L961.37 627.389C965.37 626.129 968.03 623.729 968.41 620.749H962.31V619.089H970.63C970.63 619.869 970.55 620.589 970.39 621.289H974.01V617.689H976.07V631.089H974.01V627.029H969.57V625.349H974.01V622.969ZM966.55 633.729H976.53V635.409H964.49V629.769H966.55V633.729ZM990.248 626.249L989.228 627.849C987.228 627.149 985.788 625.729 985.008 623.989C984.208 625.929 982.688 627.489 980.548 628.229L979.488 626.609C982.288 625.649 983.928 623.269 983.928 620.829V620.469H980.108V618.809H989.768V620.469H986.008V620.809C986.008 623.049 987.548 625.309 990.248 626.249ZM982.288 631.029V629.369H994.468V635.749H992.408V631.029H982.288ZM992.408 617.669H994.468V628.469H992.408V623.909H989.248V622.209H992.408V617.669ZM869.54 660.209V645.469H872.2L874.9 652.929C875.24 653.909 875.54 654.909 875.88 655.889H875.98C876.32 654.909 876.6 653.909 876.94 652.929L879.6 645.469H882.28V660.209H880.12V652.929C880.12 651.609 880.3 649.709 880.42 648.369H880.34L879.16 651.769L876.6 658.789H875.16L872.58 651.769L871.42 648.369H871.34C871.44 649.709 871.62 651.609 871.62 652.929V660.209H869.54ZM888.701 648.789C888.701 649.509 888.941 650.289 889.341 651.109C890.601 650.289 891.641 649.469 891.641 648.269C891.641 647.469 891.261 646.789 890.381 646.789C889.381 646.789 888.701 647.629 888.701 648.789ZM889.481 660.469C886.661 660.469 884.881 658.689 884.881 656.369C884.881 654.349 886.221 653.129 887.721 652.129C887.121 650.969 886.761 649.829 886.761 648.809C886.761 646.809 888.181 645.209 890.341 645.209C892.301 645.209 893.461 646.449 893.461 648.249C893.461 650.189 891.821 651.409 890.201 652.569C891.141 653.889 892.421 655.189 893.721 656.229C894.581 655.109 895.241 653.729 895.681 652.149H897.801C897.241 654.049 896.421 655.809 895.261 657.349C896.221 657.949 897.161 658.389 897.961 658.589L897.361 660.469C896.281 660.209 895.061 659.649 893.861 658.849C892.701 659.849 891.261 660.469 889.481 660.469ZM887.081 656.229C887.081 657.689 888.241 658.669 889.761 658.669C890.661 658.669 891.521 658.289 892.301 657.669C890.941 656.509 889.661 655.129 888.661 653.689C887.761 654.449 887.081 655.229 887.081 656.229ZM900.262 660.209V645.469H908.962V647.429H902.582V651.529H907.982V653.489H902.582V658.249H909.182V660.209H900.262ZM922.487 645.189V648.149C922.487 651.469 924.327 654.789 927.167 656.069L925.967 657.709C923.887 656.729 922.307 654.729 921.487 652.289C920.667 654.909 919.067 657.049 916.887 658.109L915.667 656.389C918.547 655.089 920.427 651.629 920.427 648.149V645.189H922.487ZM928.607 643.669H930.687V661.789H928.607V643.669ZM948.025 650.869L946.005 650.649C946.465 648.869 946.485 647.569 946.485 646.209H936.125V644.549H948.525V646.069C948.525 647.509 948.525 649.009 948.025 650.869ZM942.325 660.169C944.985 660.169 946.585 659.509 946.585 658.369C946.585 657.249 944.985 656.589 942.325 656.589C939.645 656.589 938.005 657.249 938.005 658.369C938.005 659.509 939.645 660.169 942.325 660.169ZM942.325 655.009C946.165 655.009 948.645 656.289 948.645 658.369C948.645 660.469 946.165 661.749 942.325 661.749C938.425 661.749 935.965 660.469 935.965 658.369C935.965 656.289 938.425 655.009 942.325 655.009ZM942.725 651.949H950.525V653.609H934.245V651.949H940.645V648.629H942.725V651.949ZM962.164 651.429L960.144 651.209C960.504 649.269 960.564 647.849 960.584 646.729H953.524V645.049H962.604V646.089C962.604 647.309 962.604 649.089 962.164 651.429ZM963.664 652.329L963.804 653.829C960.044 654.489 955.784 654.589 952.644 654.589L952.424 652.909C953.504 652.909 954.744 652.909 956.024 652.869V649.169H958.064V652.809C959.944 652.729 961.884 652.609 963.664 652.329ZM957.224 656.049V659.729H967.424V661.409H955.144V656.049H957.224ZM966.844 649.409H969.244V651.109H966.844V657.249H964.764V643.689H966.844V649.409ZM974.122 651.989V655.789C976.982 655.769 979.482 655.629 982.342 655.169L982.562 656.849C979.462 657.389 976.762 657.489 973.582 657.489H972.042V650.329H978.342V646.969H972.002V645.289H980.422V651.989H974.122ZM983.842 643.649H985.922V661.789H983.842V643.649ZM882.828 683.469V679.849H880.068V678.189H882.828V676.029H880.068V674.349H882.828V669.689H884.888V683.469H882.828ZM879.988 671.749V673.389H869.968V671.749H874.028V669.669H876.088V671.749H879.988ZM872.848 677.729C872.848 678.909 873.748 679.609 875.048 679.609C876.368 679.609 877.268 678.909 877.268 677.729C877.268 676.569 876.368 675.829 875.048 675.829C873.748 675.829 872.848 676.569 872.848 677.729ZM879.208 677.729C879.208 679.809 877.508 681.229 875.048 681.229C872.608 681.229 870.908 679.809 870.908 677.729C870.908 675.629 872.608 674.229 875.048 674.229C877.508 674.229 879.208 675.629 879.208 677.729ZM875.208 685.729H885.308V687.409H873.128V682.309H875.208V685.729ZM898.927 678.189L897.927 679.789C895.907 679.149 894.467 677.849 893.687 676.169C892.887 678.089 891.367 679.629 889.207 680.369L888.167 678.749C891.007 677.769 892.587 675.449 892.587 672.989V672.629H888.747V670.969H898.447V672.629H894.667V672.969C894.667 675.209 896.167 677.309 898.927 678.189ZM896.607 686.129C899.127 686.129 900.587 685.489 900.587 684.329C900.587 683.149 899.127 682.529 896.607 682.529C894.087 682.529 892.627 683.149 892.627 684.329C892.627 685.489 894.087 686.129 896.607 686.129ZM896.607 680.909C900.327 680.909 902.627 682.169 902.627 684.329C902.627 686.469 900.327 687.749 896.607 687.749C892.887 687.749 890.587 686.469 890.587 684.329C890.587 682.169 892.887 680.909 896.607 680.909ZM902.427 674.089H904.987V675.789H902.427V680.489H900.367V669.689H902.427V674.089ZM905.945 689.809L911.505 670.229H913.105L907.545 689.809H905.945ZM916.758 675.409C916.758 677.069 917.958 678.149 919.538 678.149C921.118 678.149 922.338 677.069 922.338 675.409C922.338 673.769 921.118 672.689 919.538 672.689C917.958 672.689 916.758 673.769 916.758 675.409ZM924.358 675.409C924.358 678.049 922.278 679.929 919.538 679.929C916.818 679.929 914.738 678.049 914.738 675.409C914.738 672.769 916.818 670.909 919.538 670.909C922.278 670.909 924.358 672.769 924.358 675.409ZM919.258 681.569V685.729H929.338V687.409H917.178V681.569H919.258ZM928.618 675.049H931.178V676.749H928.618V682.929H926.558V669.689H928.618V675.049ZM942.536 674.529H945.816V669.709H947.876V682.909H945.816V676.229H942.536V674.529ZM943.656 678.749L942.636 680.349C940.636 679.669 939.176 678.249 938.416 676.469C937.616 678.429 936.096 680.009 933.956 680.749L932.896 679.129C935.696 678.149 937.336 675.769 937.336 673.329V672.709H933.516V671.049H943.176V672.709H939.416V673.329C939.416 675.549 940.956 677.809 943.656 678.749ZM938.236 685.729H948.336V687.409H936.176V681.769H938.236V685.729ZM960.855 677.429L958.835 677.209C959.195 675.269 959.255 673.849 959.275 672.729H952.215V671.049H961.295V672.089C961.295 673.309 961.295 675.089 960.855 677.429ZM962.355 678.329L962.495 679.829C958.735 680.489 954.475 680.589 951.335 680.589L951.115 678.909C952.195 678.909 953.435 678.909 954.715 678.869V675.169H956.755V678.809C958.635 678.729 960.575 678.609 962.355 678.329ZM955.915 682.049V685.729H966.115V687.409H953.835V682.049H955.915ZM965.535 675.409H967.935V677.109H965.535V683.249H963.455V669.689H965.535V675.409ZM972.813 677.989V681.789C975.673 681.769 978.173 681.629 981.033 681.169L981.253 682.849C978.153 683.389 975.453 683.489 972.273 683.489H970.733V676.329H977.033V672.969H970.693V671.289H979.113V677.989H972.813ZM982.533 669.649H984.613V687.789H982.533V669.649Z" fill="#666666"/>
<path d="M1145.48 621.049V629.649C1148.84 629.629 1151 629.529 1153.42 629.069L1153.64 630.789C1151.02 631.269 1148.68 631.369 1144.94 631.369H1143.44V619.349H1152.04V621.049H1145.48ZM1155.1 617.669H1157.18V635.789H1155.1V617.669ZM1167.04 621.189V622.929C1167.04 625.729 1168.82 628.929 1171.56 630.229L1170.42 631.849C1168.4 630.889 1166.86 628.889 1166.04 626.609C1165.24 629.129 1163.64 631.289 1161.56 632.309L1160.38 630.669C1163.14 629.349 1164.98 625.929 1164.98 622.929V621.189H1161.04V619.489H1170.86V621.189H1167.04ZM1177.52 624.809V626.509H1174.7V635.749H1172.64V617.689H1174.7V624.809H1177.52ZM1194 617.689V630.809H1191.94V617.689H1194ZM1181.48 623.409C1181.48 625.049 1182.66 626.149 1184.26 626.149C1185.84 626.149 1187.04 625.049 1187.04 623.409C1187.04 621.749 1185.84 620.669 1184.26 620.669C1182.66 620.669 1181.48 621.749 1181.48 623.409ZM1189.04 623.409C1189.04 626.029 1186.98 627.929 1184.26 627.929C1181.54 627.929 1179.46 626.029 1179.46 623.409C1179.46 620.769 1181.54 618.889 1184.26 618.889C1186.98 618.889 1189.04 620.769 1189.04 623.409ZM1184.28 633.729H1194.52V635.409H1182.2V629.489H1184.28V633.729ZM1205.68 619.409C1202.88 619.409 1201.38 619.949 1201.38 620.989C1201.38 622.029 1202.88 622.569 1205.68 622.569C1208.48 622.569 1209.98 622.029 1209.98 620.989C1209.98 619.949 1208.48 619.409 1205.68 619.409ZM1205.68 624.109C1201.62 624.109 1199.24 623.009 1199.24 620.989C1199.24 618.969 1201.62 617.869 1205.68 617.869C1209.72 617.869 1212.12 618.969 1212.12 620.989C1212.12 623.009 1209.72 624.109 1205.68 624.109ZM1213.84 626.729H1206.7V628.189H1211.8V632.509H1201.52V634.009H1212.32V635.589H1199.48V631.049H1209.78V629.749H1199.44V628.189H1204.62V626.729H1197.5V625.089H1213.84V626.729ZM1218.72 625.969V629.849C1221.6 629.829 1223.8 629.729 1226.34 629.309L1226.54 630.989C1223.76 631.429 1221.36 631.529 1218.12 631.529H1216.66V619.249H1225.1V620.949H1218.72V624.309H1224.76V625.969H1218.72ZM1232.72 624.769V626.469H1229.9V635.769H1227.84V617.669H1229.9V624.769H1232.72ZM1237.42 625.989V629.789C1240.28 629.769 1242.78 629.629 1245.64 629.169L1245.86 630.849C1242.76 631.389 1240.06 631.489 1236.88 631.489H1235.34V624.329H1241.64V620.969H1235.3V619.289H1243.72V625.989H1237.42ZM1247.14 617.649H1249.22V635.789H1247.14V617.649ZM1161.14 648.529H1164.42V643.709H1166.48V656.909H1164.42V650.229H1161.14V648.529ZM1162.26 652.749L1161.24 654.349C1159.24 653.669 1157.78 652.249 1157.02 650.469C1156.22 652.429 1154.7 654.009 1152.56 654.749L1151.5 653.129C1154.3 652.149 1155.94 649.769 1155.94 647.329V646.709H1152.12V645.049H1161.78V646.709H1158.02V647.329C1158.02 649.549 1159.56 651.809 1162.26 652.749ZM1156.84 659.729H1166.94V661.409H1154.78V655.769H1156.84V659.729ZM1170.94 645.589H1179.5C1179.5 650.969 1177.34 655.529 1171.14 658.529L1170.04 656.889C1174.78 654.609 1177.02 651.429 1177.38 647.269H1170.94V645.589ZM1182.76 643.689H1184.82V661.749H1182.76V643.689ZM1194.56 648.389V649.429C1194.56 652.189 1196.14 655.129 1198.82 656.429L1197.68 658.009C1195.74 657.069 1194.3 655.229 1193.56 653.049C1192.76 655.389 1191.26 657.369 1189.2 658.329L1188.06 656.749C1190.82 655.429 1192.5 652.389 1192.5 649.429V648.389H1188.62V646.729H1192.5V644.049H1194.56V646.729H1198.38V648.389H1194.56ZM1205.12 650.929V652.629H1202.3V661.749H1200.24V643.669H1202.3V650.929H1205.12ZM1208.16 651.709L1207.54 650.129C1211.16 649.869 1213.42 648.609 1213.68 647.009H1208.34V645.389H1213.84V643.669H1215.9V645.389H1221.4V647.009H1216.06C1216.32 648.609 1218.58 649.869 1222.2 650.129L1221.56 651.709C1218.42 651.449 1216 650.409 1214.86 648.809C1213.74 650.409 1211.32 651.449 1208.16 651.709ZM1218.98 658.709C1218.98 657.729 1217.52 657.209 1214.84 657.209C1212.18 657.209 1210.72 657.729 1210.72 658.709C1210.72 659.689 1212.18 660.189 1214.84 660.189C1217.52 660.189 1218.98 659.689 1218.98 658.709ZM1223.04 654.129H1215.9V655.709C1219.16 655.909 1221.06 656.949 1221.06 658.709C1221.06 660.669 1218.76 661.749 1214.84 661.749C1210.94 661.749 1208.62 660.669 1208.62 658.709C1208.62 656.929 1210.56 655.889 1213.84 655.709V654.129H1206.7V652.489H1223.04V654.129ZM1234.74 648.529H1238.02V643.709H1240.08V656.909H1238.02V650.229H1234.74V648.529ZM1235.86 652.749L1234.84 654.349C1232.84 653.669 1231.38 652.249 1230.62 650.469C1229.82 652.429 1228.3 654.009 1226.16 654.749L1225.1 653.129C1227.9 652.149 1229.54 649.769 1229.54 647.329V646.709H1225.72V645.049H1235.38V646.709H1231.62V647.329C1231.62 649.549 1233.16 651.809 1235.86 652.749ZM1230.44 659.729H1240.54V661.409H1228.38V655.769H1230.44V659.729ZM1184.8 669.689V682.809H1182.74V669.689H1184.8ZM1172.28 675.409C1172.28 677.049 1173.46 678.149 1175.06 678.149C1176.64 678.149 1177.84 677.049 1177.84 675.409C1177.84 673.749 1176.64 672.669 1175.06 672.669C1173.46 672.669 1172.28 673.749 1172.28 675.409ZM1179.84 675.409C1179.84 678.029 1177.78 679.929 1175.06 679.929C1172.34 679.929 1170.26 678.029 1170.26 675.409C1170.26 672.769 1172.34 670.889 1175.06 670.889C1177.78 670.889 1179.84 672.769 1179.84 675.409ZM1175.08 685.729H1185.32V687.409H1173V681.489H1175.08V685.729ZM1198.54 678.949V673.049H1194.38V678.949H1198.54ZM1192.32 678.949V673.049H1189.66V671.389H1203.24V673.049H1200.58V678.949H1203.2V680.629H1189.72V678.949H1192.32ZM1188.3 683.829H1204.7V685.529H1188.3V683.829ZM1209.48 678.009V681.789C1212.44 681.769 1214.7 681.649 1217.24 681.189L1217.46 682.869C1214.68 683.369 1212.26 683.489 1208.92 683.489H1207.44V676.349H1213.62V672.969H1207.4V671.289H1215.66V678.009H1209.48ZM1223.52 676.709V678.429H1220.74V687.769H1218.66V669.649H1220.74V676.709H1223.52ZM1137.54 697.189V700.149C1137.54 703.469 1139.38 706.789 1142.22 708.069L1141.02 709.709C1138.94 708.729 1137.36 706.729 1136.54 704.289C1135.72 706.909 1134.12 709.049 1131.94 710.109L1130.72 708.389C1133.6 707.089 1135.48 703.629 1135.48 700.149V697.189H1137.54ZM1143.66 695.669H1145.74V713.789H1143.66V695.669ZM1152.38 697.449V707.429C1154.94 707.409 1157.64 707.189 1160.48 706.609L1160.7 708.329C1157.6 708.969 1154.68 709.189 1151.88 709.189H1150.34V697.449H1152.38ZM1162.14 695.689H1164.2V713.749H1162.14V695.689ZM1172.54 707.909C1174.1 707.909 1175.16 706.229 1175.16 703.369C1175.16 700.569 1174.1 698.869 1172.54 698.869C1171 698.869 1169.94 700.569 1169.94 703.369C1169.94 706.229 1171 707.909 1172.54 707.909ZM1180.6 695.669H1182.68V713.789H1180.6V704.089H1177.1C1176.86 707.589 1175.02 709.749 1172.54 709.749C1169.88 709.749 1167.98 707.289 1167.98 703.369C1167.98 699.489 1169.88 697.009 1172.54 697.009C1174.96 697.009 1176.8 699.089 1177.08 702.409H1180.6V695.669ZM1198.73 697.749C1196.17 697.749 1194.51 698.489 1194.51 699.769C1194.51 701.049 1196.17 701.789 1198.73 701.789C1201.27 701.789 1202.93 701.049 1202.93 699.769C1202.93 698.489 1201.27 697.749 1198.73 697.749ZM1198.73 703.449C1194.85 703.449 1192.33 702.029 1192.33 699.769C1192.33 697.509 1194.85 696.089 1198.73 696.089C1202.59 696.089 1205.13 697.509 1205.13 699.769C1205.13 702.029 1202.59 703.449 1198.73 703.449ZM1194.65 708.069V711.729H1205.13V713.409H1192.57V708.069H1194.65ZM1190.55 704.669H1206.93V706.349H1199.93V709.769H1197.83V706.349H1190.55V704.669ZM1217.09 712.169C1219.73 712.169 1221.23 711.589 1221.23 710.469C1221.23 709.369 1219.73 708.769 1217.09 708.769C1214.45 708.769 1212.97 709.369 1212.97 710.469C1212.97 711.589 1214.45 712.169 1217.09 712.169ZM1217.09 707.189C1220.97 707.189 1223.31 708.389 1223.31 710.469C1223.31 712.569 1220.97 713.769 1217.09 713.769C1213.23 713.769 1210.87 712.569 1210.87 710.469C1210.87 708.389 1213.23 707.189 1217.09 707.189ZM1218.17 704.409H1225.31V706.089H1208.99V704.409H1216.11V702.609H1211.01V696.489H1223.31V698.129H1213.05V700.949H1223.43V702.609H1218.17V704.409ZM1228.38 697.589H1236.94C1236.94 702.969 1234.78 707.529 1228.58 710.529L1227.48 708.889C1232.22 706.609 1234.46 703.429 1234.82 699.269H1228.38V697.589ZM1240.2 695.689H1242.26V713.749H1240.2V695.689ZM1262.1 704.509V706.209H1254.9V713.749H1252.82V706.209H1245.76V704.509H1257.5C1258.02 701.989 1258.02 700.109 1258.02 698.449H1247.72V696.789H1260.04V698.369C1260.04 700.069 1260.04 701.949 1259.58 704.509H1262.1ZM1130.87 730.529L1130.13 728.909C1133.57 728.449 1136.11 726.469 1136.23 724.369H1130.73V722.709H1144.03V724.369H1138.57C1138.69 726.469 1141.23 728.449 1144.67 728.909L1143.93 730.529C1140.95 730.089 1138.49 728.609 1137.39 726.609C1136.29 728.609 1133.85 730.089 1130.87 730.529ZM1145.57 731.849L1145.55 733.509H1138.37V739.769H1136.31V733.509H1129.23V731.849H1145.57ZM1148.33 723.589H1156.71C1156.71 728.889 1154.75 733.429 1148.63 736.469L1147.53 734.869C1152.23 732.549 1154.27 729.369 1154.61 725.269H1148.33V723.589ZM1160.51 721.689H1162.59V739.769H1160.51V730.489H1156.63V728.789H1160.51V721.689ZM1165.25 741.809L1170.81 722.229H1172.41L1166.85 741.809H1165.25ZM1175.38 732.329L1174.52 730.689C1178.04 730.129 1180.9 727.629 1180.9 724.909V724.869H1175.16V723.209H1188.8V724.869H1183.06V724.909C1183.06 727.629 1185.94 730.069 1189.52 730.629L1188.68 732.269C1185.7 731.709 1183.16 730.029 1181.98 727.729C1180.82 730.049 1178.3 731.769 1175.38 732.329ZM1183.04 735.849H1190.18V737.529H1173.82V735.849H1180.96V731.629H1183.04V735.849ZM1205.12 726.469H1200.92C1199.8 729.349 1197.14 731.369 1193.24 732.509L1192.42 730.869C1196.66 729.689 1199 727.469 1199.36 724.649H1193.36V722.989H1201.56C1201.56 723.629 1201.5 724.229 1201.4 724.789H1205.12V721.689H1207.18V732.309H1205.12V730.229H1200.74V728.549H1205.12V726.469ZM1201.26 738.049C1203.72 738.049 1205.26 737.349 1205.26 736.089C1205.26 734.849 1203.72 734.149 1201.26 734.149C1198.82 734.149 1197.28 734.849 1197.28 736.089C1197.28 737.349 1198.82 738.049 1201.26 738.049ZM1201.26 732.529C1204.92 732.529 1207.3 733.889 1207.3 736.089C1207.3 738.309 1204.92 739.669 1201.26 739.669C1197.6 739.669 1195.24 738.309 1195.24 736.089C1195.24 733.889 1197.6 732.529 1201.26 732.529ZM1217.28 723.189V726.149C1217.28 729.469 1219.12 732.789 1221.96 734.069L1220.76 735.709C1218.68 734.729 1217.1 732.729 1216.28 730.289C1215.46 732.909 1213.86 735.049 1211.68 736.109L1210.46 734.389C1213.34 733.089 1215.22 729.629 1215.22 726.149V723.189H1217.28ZM1223.4 721.669H1225.48V739.789H1223.4V721.669ZM1241.91 730.949V726.349H1238.25V724.689H1241.91V721.669H1243.97V730.949H1241.91ZM1239.67 729.049L1238.59 730.649C1236.63 729.989 1235.19 728.649 1234.43 726.969C1233.63 728.849 1232.13 730.309 1230.01 731.049L1228.95 729.429C1231.77 728.509 1233.35 726.249 1233.35 723.769V722.249H1235.41V723.769C1235.41 726.049 1236.97 728.169 1239.67 729.049ZM1234.29 737.909H1244.59V739.529H1232.25V734.849H1241.93V733.409H1232.21V731.809H1243.97V736.369H1234.29V737.909ZM1259.61 726.209V723.849H1251.51V726.209H1259.61ZM1261.63 722.249V727.829H1249.47V722.249H1261.63ZM1263.75 730.729H1256.59V732.229H1261.69V736.529H1251.41V738.009H1262.21V739.589H1249.37V735.069H1259.67V733.789H1249.33V732.229H1254.51V730.729H1247.39V729.089H1263.75V730.729Z" fill="#666666"/>
<path d="M736.5 189.829C736.5 237.35 698.881 275.853 652.5 275.853C606.119 275.853 568.5 237.35 568.5 189.829C568.5 142.308 606.119 103.805 652.5 103.805C698.881 103.805 736.5 142.308 736.5 189.829Z" stroke="#D1D1D1"/>
<path d="M625.36 179.014H628.384V201.238H625.36V179.014ZM622.384 187.558H626.08V190.126H622.384V187.558ZM620.392 179.398H623.344V200.182H620.392V179.398ZM609.928 193.606H611.488C614.224 193.606 616.504 193.51 619.144 193.03L619.384 195.622C616.696 196.15 614.344 196.222 611.488 196.222H609.928V193.606ZM609.928 181.582H618.136V184.15H613.096V194.854H609.928V181.582ZM636.326 191.11H639.518V197.086H636.326V191.11ZM643.31 191.134H646.478V197.11H643.31V191.134ZM631.406 196.222H651.518V198.814H631.406V196.222ZM632.942 180.766H649.862V183.31H632.942V180.766ZM633.038 189.55H649.79V192.07H633.038V189.55ZM635.966 182.878H639.158V189.91H635.966V182.878ZM643.67 182.878H646.838V189.91H643.67V182.878ZM668.7 178.99H671.916V201.286H668.7V178.99ZM659.94 180.55C663.3 180.55 665.772 183.622 665.772 188.47C665.772 193.366 663.3 196.438 659.94 196.438C656.58 196.438 654.108 193.366 654.108 188.47C654.108 183.622 656.58 180.55 659.94 180.55ZM659.94 183.454C658.284 183.454 657.156 185.206 657.156 188.47C657.156 191.782 658.284 193.558 659.94 193.558C661.596 193.558 662.7 191.782 662.7 188.47C662.7 185.206 661.596 183.454 659.94 183.454ZM680.53 180.718H683.122V183.958C683.122 189.454 681.202 194.614 677.002 196.678L675.082 194.11C678.826 192.358 680.53 188.086 680.53 183.958V180.718ZM681.178 180.718H683.722V183.958C683.722 187.942 685.306 191.998 688.858 193.726L686.938 196.27C682.93 194.23 681.178 189.286 681.178 183.958V180.718ZM689.746 179.014H692.962V201.238H689.746V179.014ZM692.242 187.558H696.178V190.222H692.242V187.558Z" fill="#666666"/>
<path d="M190.5 507.254C190.5 554.775 152.881 593.278 106.5 593.278C60.1192 593.278 22.5 554.775 22.5 507.254C22.5 459.733 60.1192 421.23 106.5 421.23C152.881 421.23 190.5 459.733 190.5 507.254Z" stroke="#D1D1D1"/>
<path d="M116.65 482.297C116.65 487.757 112.333 492.178 107 492.178C101.668 492.178 97.3501 487.757 97.3501 482.297C97.3501 476.836 101.668 472.416 107 472.416C112.333 472.416 116.65 476.836 116.65 482.297Z" stroke="#666666" stroke-width="2" stroke-miterlimit="10" stroke-linecap="round" stroke-linejoin="round"/>
<path d="M125.627 482.297C125.627 480.768 125.43 479.3 125.106 477.876L131.147 473.368L126.625 465.348L119.79 468.458C117.691 466.431 115.149 464.885 112.307 464.02L111.522 456.419H102.478L101.693 464.02C98.8518 464.885 96.3091 466.422 94.2102 468.458L87.3757 465.348L82.8535 473.368L88.8945 477.876C88.5617 479.3 88.374 480.777 88.374 482.297C88.374 483.826 88.5702 485.294 88.8945 486.718L82.8535 491.226L87.3757 499.246L94.2102 496.136C96.3091 498.163 98.8518 499.71 101.693 500.574L102.478 508.175H111.522L112.307 500.574C115.149 499.71 117.691 498.172 119.79 496.136L126.625 499.246L131.147 491.226L125.106 486.718C125.439 485.294 125.627 483.826 125.627 482.297Z" stroke="#666666" stroke-width="2" stroke-miterlimit="10" stroke-linecap="round" stroke-linejoin="round"/>
<path d="M73.9239 525.266H69.7239C68.6039 528.146 65.9439 530.166 62.0439 531.306L61.2239 529.666C65.4639 528.486 67.8039 526.266 68.1639 523.446H62.1639V521.786H70.3639C70.3639 522.426 70.3039 523.026 70.2039 523.586H73.9239V520.486H75.9839V531.106H73.9239V529.026H69.5439V527.346H73.9239V525.266ZM70.0639 536.846C72.5239 536.846 74.0639 536.146 74.0639 534.886C74.0639 533.646 72.5239 532.946 70.0639 532.946C67.6239 532.946 66.0839 533.646 66.0839 534.886C66.0839 536.146 67.6239 536.846 70.0639 536.846ZM70.0639 531.326C73.7239 531.326 76.1039 532.686 76.1039 534.886C76.1039 537.106 73.7239 538.466 70.0639 538.466C66.4039 538.466 64.0439 537.106 64.0439 534.886C64.0439 532.686 66.4039 531.326 70.0639 531.326ZM81.6223 525.866C81.6223 527.426 82.7823 528.466 84.3823 528.466C85.9423 528.466 87.1023 527.426 87.1023 525.866C87.1023 524.286 85.9423 523.246 84.3823 523.246C82.7823 523.246 81.6223 524.286 81.6223 525.866ZM92.3223 524.646H88.9023C89.0023 525.026 89.0623 525.426 89.0623 525.866C89.0623 526.306 89.0023 526.706 88.8823 527.086H92.3223V524.646ZM92.3223 528.746H87.9623C87.1223 529.666 85.8423 530.206 84.3823 530.206C81.6823 530.206 79.6623 528.406 79.6623 525.866C79.6623 523.306 81.6823 521.506 84.3823 521.506C85.8623 521.506 87.1223 522.066 87.9623 522.966H92.3223V520.466H94.3823V531.126H92.3223V528.746ZM88.3623 536.926C90.9423 536.926 92.4223 536.266 92.4223 535.026C92.4223 533.826 90.9423 533.146 88.3623 533.146C85.8023 533.146 84.3023 533.826 84.3023 535.026C84.3023 536.266 85.8023 536.926 88.3623 536.926ZM88.3623 531.526C92.1223 531.526 94.4623 532.826 94.4623 535.026C94.4623 537.246 92.1223 538.546 88.3623 538.546C84.6023 538.546 82.2823 537.246 82.2823 535.026C82.2823 532.826 84.6023 531.526 88.3623 531.526ZM104.481 523.986V525.706C104.481 528.706 106.341 531.826 109.161 533.026L108.021 534.646C105.921 533.726 104.301 531.766 103.461 529.426C102.661 531.946 101.041 534.086 98.9208 535.106L97.7408 533.466C100.541 532.166 102.401 528.806 102.401 525.706V523.986H98.3808V522.286H108.501V523.986H104.481ZM110.601 520.486H112.681V538.546H110.601V520.486ZM125.579 531.086H129.119V520.466H131.179V534.206H129.119V532.526H125.579V531.086ZM121.979 522.686C120.479 522.686 119.459 523.326 119.459 524.346C119.459 525.366 120.479 526.006 121.979 526.006C123.459 526.006 124.479 525.366 124.479 524.346C124.479 523.326 123.459 522.686 121.979 522.686ZM121.979 527.526C119.319 527.526 117.499 526.266 117.499 524.346C117.499 522.426 119.319 521.166 121.979 521.166C124.619 521.166 126.439 522.426 126.439 524.346C126.439 526.266 124.619 527.526 121.979 527.526ZM121.159 533.626V530.266C119.439 530.346 117.819 530.366 116.379 530.366L116.119 528.686C119.439 528.666 123.879 528.626 127.699 528.146L127.859 529.626C126.339 529.886 124.759 530.046 123.219 530.146V533.626H121.159ZM120.619 536.526H131.599V538.206H118.559V532.866H120.619V536.526ZM145.618 528.146L145.818 529.786C143.238 530.206 141.018 530.266 137.138 530.266H135.638V521.526H144.278V523.186H137.678V525.046H143.758V526.666H137.678V528.626C141.158 528.626 143.218 528.546 145.618 528.146ZM139.698 533.726V536.686H147.478V533.726H139.698ZM137.678 538.326V532.086H149.498V538.326H137.678ZM147.438 520.486H149.498V531.246H147.438V520.486Z" fill="#666666"/>
<path d="M463.5 507.254C463.5 554.775 425.881 593.278 379.5 593.278C333.119 593.278 295.5 554.775 295.5 507.254C295.5 459.733 333.119 421.23 379.5 421.23C425.881 421.23 463.5 459.733 463.5 507.254Z" stroke="#D1D1D1"/>
<path d="M375.632 503.161C375.632 505.276 377.308 507 379.381 507C381.454 507 383.131 505.283 383.131 503.161" stroke="#666666" stroke-width="2" stroke-miterlimit="10" stroke-linecap="round" stroke-linejoin="round"/>
<path d="M384.83 495.528C385.698 495.528 386.401 494.808 386.401 493.919V490.701C386.401 490.563 386.356 490.432 386.319 490.302C390.173 487.896 392.755 483.566 392.755 478.608C392.755 471.045 386.768 464.914 379.381 464.914C371.987 464.914 366 471.045 366 478.608C366 483.566 368.582 487.896 372.436 490.302C372.406 490.432 372.354 490.555 372.354 490.701V493.919C372.354 494.8 373.065 495.528 373.925 495.528" stroke="#666666" stroke-width="2" stroke-miterlimit="10" stroke-linecap="round" stroke-linejoin="round"/>
<path d="M386.401 498.088V497.138C386.401 496.249 385.698 495.528 384.83 495.528H373.926C373.065 495.528 372.354 496.249 372.354 497.138V498.088C372.354 498.609 372.608 499.046 372.99 499.345C372.616 499.636 372.354 500.08 372.354 500.601V501.552C372.354 502.433 373.065 503.161 373.926 503.161H384.83C385.698 503.161 386.401 502.44 386.401 501.552V500.601C386.401 500.08 386.139 499.643 385.765 499.345C386.139 499.046 386.401 498.609 386.401 498.088Z" stroke="#666666" stroke-width="2" stroke-miterlimit="10" stroke-linecap="round" stroke-linejoin="round"/>
<path d="M373.14 499.345H382.472" stroke="#666666" stroke-width="2" stroke-miterlimit="10" stroke-linecap="round" stroke-linejoin="round"/>
<path d="M379.374 457.335V461.128" stroke="#666666" stroke-width="2" stroke-miterlimit="10" stroke-linecap="round" stroke-linejoin="round"/>
<path d="M389.297 460.055L387.449 463.343" stroke="#666666" stroke-width="2" stroke-miterlimit="10" stroke-linecap="round" stroke-linejoin="round"/>
<path d="M369.458 460.055L371.306 463.343" stroke="#666666" stroke-width="2" stroke-miterlimit="10" stroke-linecap="round" stroke-linejoin="round"/>
<path d="M344.243 525.386H352.803C352.803 530.766 350.643 535.326 344.443 538.326L343.343 536.686C348.083 534.406 350.323 531.226 350.683 527.066H344.243V525.386ZM356.063 523.486H358.123V541.546H356.063V523.486ZM374.542 539.666V537.666H366.882V539.666H374.542ZM374.542 536.066V534.026H376.582V541.326H364.842V534.026H366.882V536.066H374.542ZM366.582 531.046C368.142 531.046 369.302 530.026 369.302 528.506C369.302 526.966 368.142 525.986 366.582 525.986C364.982 525.986 363.842 526.966 363.842 528.506C363.842 530.026 364.982 531.046 366.582 531.046ZM374.522 523.486H376.582V533.166H374.522V529.326H371.182C370.822 531.366 368.982 532.746 366.582 532.746C363.862 532.746 361.862 531.006 361.862 528.506C361.862 526.026 363.862 524.286 366.582 524.286C368.962 524.286 370.782 525.626 371.182 527.646H374.522V523.486ZM392.3 530.426V528.126H384.04V530.426H392.3ZM394.36 524.186V532.086H381.98V524.186H384.04V526.466H392.3V524.186H394.36ZM396.38 534.046V535.706H389.16V541.566H387.1V535.706H380V534.046H396.38ZM411.318 532.746V528.146H407.658V526.486H411.318V523.466H413.378V532.746H411.318ZM409.078 530.846L407.998 532.446C406.038 531.786 404.598 530.446 403.838 528.766C403.038 530.646 401.538 532.106 399.418 532.846L398.358 531.226C401.178 530.306 402.758 528.046 402.758 525.566V524.046H404.818V525.566C404.818 527.846 406.378 529.966 409.078 530.846ZM403.698 539.706H413.998V541.326H401.658V536.646H411.338V535.206H401.618V533.606H413.378V538.166H403.698V539.706ZM339.504 553.146V554.446C339.504 557.526 340.664 560.646 343.184 562.106L341.984 563.606C340.284 562.606 339.164 560.826 338.524 558.726C337.884 561.006 336.724 562.946 334.984 564.046L333.744 562.526C336.304 560.926 337.504 557.666 337.504 554.446V553.146H334.324V551.446H342.484V553.146H339.504ZM343.824 555.826V549.826H345.764V566.666H343.824V557.506H341.164V555.826H343.824ZM347.464 549.466H349.424V567.526H347.464V549.466ZM362.642 554.986V551.666H358.482V554.986H362.642ZM356.422 554.986V551.666H353.862V550.006H367.242V551.666H364.702V554.986H367.142V556.646H353.962V554.986H356.422ZM364.742 565.686V563.226H356.402V565.686H364.742ZM368.742 559.746H361.602V561.586H366.762V567.326H354.362V561.586H359.542V559.746H352.402V558.086H368.742V559.746ZM373.021 555.186C373.021 556.866 374.201 557.986 375.781 557.986C377.321 557.986 378.501 556.866 378.501 555.186C378.501 553.546 377.321 552.426 375.781 552.426C374.201 552.426 373.021 553.546 373.021 555.186ZM383.721 553.846H380.261C380.401 554.266 380.461 554.706 380.461 555.186C380.461 555.666 380.401 556.106 380.261 556.526H383.721V553.846ZM383.721 558.206H379.381C378.541 559.186 377.261 559.786 375.781 559.766C373.101 559.766 371.061 557.846 371.061 555.186C371.061 552.526 373.101 550.606 375.781 550.606C377.261 550.606 378.541 551.206 379.381 552.166H383.721V549.506H385.781V562.786H383.721V558.206ZM376.141 565.526H386.241V567.206H374.081V561.446H376.141V565.526ZM405.559 558.306V560.006H398.359V567.546H396.279V560.006H389.219V558.306H400.959C401.479 555.786 401.479 553.906 401.479 552.246H391.179V550.586H403.499V552.166C403.499 553.866 403.499 555.746 403.039 558.306H405.559ZM423.278 558.026L422.418 559.746C419.458 559.166 416.898 557.366 415.738 554.966C414.538 557.366 411.978 559.166 409.038 559.746L408.158 558.026C411.738 557.426 414.638 554.726 414.638 551.946V550.586H416.818V551.946C416.818 554.746 419.718 557.426 423.278 558.026ZM416.738 563.606H423.978V565.306H407.618V563.606H414.678V559.386H416.738V563.606Z" fill="#666666"/>
<path d="M736.5 507.254C736.5 554.775 698.881 593.278 652.5 593.278C606.119 593.278 568.5 554.775 568.5 507.254C568.5 459.733 606.119 421.23 652.5 421.23C698.881 421.23 736.5 459.733 736.5 507.254Z" stroke="#D1D1D1"/>
<path d="M617.743 525.386H626.303C626.303 530.766 624.143 535.326 617.943 538.326L616.843 536.686C621.583 534.406 623.823 531.226 624.183 527.066H617.743V525.386ZM629.563 523.486H631.623V541.546H629.563V523.486ZM648.042 539.666V537.666H640.382V539.666H648.042ZM648.042 536.066V534.026H650.082V541.326H638.342V534.026H640.382V536.066H648.042ZM640.082 531.046C641.642 531.046 642.802 530.026 642.802 528.506C642.802 526.966 641.642 525.986 640.082 525.986C638.482 525.986 637.342 526.966 637.342 528.506C637.342 530.026 638.482 531.046 640.082 531.046ZM648.022 523.486H650.082V533.166H648.022V529.326H644.682C644.322 531.366 642.482 532.746 640.082 532.746C637.362 532.746 635.362 531.006 635.362 528.506C635.362 526.026 637.362 524.286 640.082 524.286C642.462 524.286 644.282 525.626 644.682 527.646H648.022V523.486ZM665.8 530.426V528.126H657.54V530.426H665.8ZM667.86 524.186V532.086H655.48V524.186H657.54V526.466H665.8V524.186H667.86ZM669.88 534.046V535.706H662.66V541.566H660.6V535.706H653.5V534.046H669.88ZM684.818 532.746V528.146H681.158V526.486H684.818V523.466H686.878V532.746H684.818ZM682.578 530.846L681.498 532.446C679.538 531.786 678.098 530.446 677.338 528.766C676.538 530.646 675.038 532.106 672.918 532.846L671.858 531.226C674.678 530.306 676.258 528.046 676.258 525.566V524.046H678.318V525.566C678.318 527.846 679.878 529.966 682.578 530.846ZM677.198 539.706H687.498V541.326H675.158V536.646H684.838V535.206H675.118V533.606H686.878V538.166H677.198V539.706ZM601.485 552.846V561.446C604.845 561.426 607.005 561.326 609.425 560.866L609.645 562.586C607.025 563.066 604.685 563.166 600.945 563.166H599.445V551.146H608.045V552.846H601.485ZM611.105 549.466H613.185V567.586H611.105V549.466ZM623.043 552.986V554.726C623.043 557.526 624.823 560.726 627.563 562.026L626.423 563.646C624.403 562.686 622.863 560.686 622.043 558.406C621.243 560.926 619.643 563.086 617.563 564.106L616.383 562.466C619.143 561.146 620.983 557.726 620.983 554.726V552.986H617.043V551.286H626.863V552.986H623.043ZM633.523 556.606V558.306H630.703V567.546H628.643V549.486H630.703V556.606H633.523ZM650.002 549.486V562.606H647.942V549.486H650.002ZM637.482 555.206C637.482 556.846 638.662 557.946 640.262 557.946C641.842 557.946 643.042 556.846 643.042 555.206C643.042 553.546 641.842 552.466 640.262 552.466C638.662 552.466 637.482 553.546 637.482 555.206ZM645.042 555.206C645.042 557.826 642.982 559.726 640.262 559.726C637.542 559.726 635.462 557.826 635.462 555.206C635.462 552.566 637.542 550.686 640.262 550.686C642.982 550.686 645.042 552.566 645.042 555.206ZM640.282 565.526H650.522V567.206H638.202V561.286H640.282V565.526ZM655.72 555.186C655.72 556.866 656.9 557.986 658.48 557.986C660.02 557.986 661.2 556.866 661.2 555.186C661.2 553.546 660.02 552.426 658.48 552.426C656.9 552.426 655.72 553.546 655.72 555.186ZM666.42 553.846H662.96C663.1 554.266 663.16 554.706 663.16 555.186C663.16 555.666 663.1 556.106 662.96 556.526H666.42V553.846ZM666.42 558.206H662.08C661.24 559.186 659.96 559.786 658.48 559.766C655.8 559.766 653.76 557.846 653.76 555.186C653.76 552.526 655.8 550.606 658.48 550.606C659.96 550.606 661.24 551.206 662.08 552.166H666.42V549.506H668.48V562.786H666.42V558.206ZM658.84 565.526H668.94V567.206H656.78V561.446H658.84V565.526ZM688.258 558.306V560.006H681.058V567.546H678.978V560.006H671.918V558.306H683.658C684.178 555.786 684.178 553.906 684.178 552.246H673.878V550.586H686.198V552.166C686.198 553.866 686.198 555.746 685.738 558.306H688.258ZM705.977 558.026L705.117 559.746C702.157 559.166 699.597 557.366 698.437 554.966C697.237 557.366 694.677 559.166 691.737 559.746L690.857 558.026C694.437 557.426 697.337 554.726 697.337 551.946V550.586H699.517V551.946C699.517 554.746 702.417 557.426 705.977 558.026ZM699.437 563.606H706.677V565.306H690.317V563.606H697.377V559.386H699.437V563.606Z" fill="#666666"/>
<path d="M660.771 500.226L654.466 501.436L655.648 494.988" stroke="#666666" stroke-width="2" stroke-miterlimit="10" stroke-linecap="round" stroke-linejoin="round"/>
<path d="M660.952 500.226L676.195 484.682C676.502 484.368 676.502 483.859 676.195 483.545L672.01 479.259C671.702 478.945 671.206 478.945 670.899 479.259L655.648 494.803L660.952 500.226Z" stroke="#666666" stroke-width="2" stroke-miterlimit="10" stroke-linecap="round" stroke-linejoin="round"/>
<path d="M636.867 459.641V499.524C636.867 499.524 636.189 506.036 632.177 506.036" stroke="#666666" stroke-width="2" stroke-miterlimit="10" stroke-linecap="round" stroke-linejoin="round"/>
<path d="M643.526 471.891H663.459" stroke="#666666" stroke-width="2" stroke-miterlimit="10" stroke-linecap="round" stroke-linejoin="round"/>
<path d="M643.526 478.509H663.459" stroke="#666666" stroke-width="2" stroke-miterlimit="10" stroke-linecap="round" stroke-linejoin="round"/>
<path d="M643.526 485.118H653.749" stroke="#666666" stroke-width="2" stroke-miterlimit="10" stroke-linecap="round" stroke-linejoin="round"/>
<path d="M643.526 491.728H653.749" stroke="#666666" stroke-width="2" stroke-miterlimit="10" stroke-linecap="round" stroke-linejoin="round"/>
<path d="M669.378 480.801V459.641H637.016L636.875 491.978H628V499.532C628 503.987 631.689 507.102 636.189 507.102H661.189C665.689 507.102 669.378 503.995 669.378 499.532V492.406" stroke="#666666" stroke-width="2" stroke-miterlimit="10" stroke-linecap="round" stroke-linejoin="round"/>
<path d="M1009.5 507.254C1009.5 554.775 971.881 593.278 925.5 593.278C879.119 593.278 841.5 554.775 841.5 507.254C841.5 459.733 879.119 421.23 925.5 421.23C971.881 421.23 1009.5 459.733 1009.5 507.254Z" stroke="#D1D1D1"/>
<path d="M922.593 476.615L935.635 465.489" stroke="#666666" stroke-width="2" stroke-miterlimit="10" stroke-linecap="round" stroke-linejoin="round"/>
<path d="M944.325 474.386L933.459 487.74" stroke="#666666" stroke-width="2" stroke-miterlimit="10" stroke-linecap="round" stroke-linejoin="round"/>
<path d="M946.326 475.772L934.58 463.745C933.932 463.081 933.932 462.001 934.58 461.338L935.751 460.138C936.399 459.475 937.454 459.475 938.102 460.138L949.849 472.166C950.496 472.829 950.496 473.909 949.849 474.573L948.677 475.772C948.029 476.436 946.974 476.436 946.326 475.772Z" stroke="#666666" stroke-width="2" stroke-miterlimit="10" stroke-linecap="round" stroke-linejoin="round"/>
<path d="M932.744 495.549L914.967 477.346C914.56 476.929 914.726 476.231 915.266 476.044L916.654 475.568C918.863 474.811 921.297 475.406 922.942 477.091L932.985 487.374C934.63 489.058 935.203 491.551 934.472 493.813L934.007 495.234C933.833 495.795 933.143 495.957 932.744 495.549Z" stroke="#666666" stroke-width="2" stroke-miterlimit="10" stroke-linecap="round" stroke-linejoin="round"/>
<path d="M907.84 506.76L902 508.572L903.728 502.549L921.654 484.193L925.766 488.404L907.84 506.76Z" stroke="#666666" stroke-width="2" stroke-miterlimit="10" stroke-linecap="round" stroke-linejoin="round"/>
<path d="M883.787 524.986V527.946C883.787 531.266 885.627 534.586 888.467 535.866L887.267 537.506C885.187 536.526 883.607 534.526 882.787 532.086C881.967 534.706 880.367 536.846 878.187 537.906L876.967 536.186C879.847 534.886 881.727 531.426 881.727 527.946V524.986H883.787ZM889.907 523.466H891.987V541.586H889.907V523.466ZM909.326 530.666L907.306 530.446C907.766 528.666 907.786 527.366 907.786 526.006H897.426V524.346H909.826V525.866C909.826 527.306 909.826 528.806 909.326 530.666ZM903.626 539.966C906.286 539.966 907.886 539.306 907.886 538.166C907.886 537.046 906.286 536.386 903.626 536.386C900.946 536.386 899.306 537.046 899.306 538.166C899.306 539.306 900.946 539.966 903.626 539.966ZM903.626 534.806C907.466 534.806 909.946 536.086 909.946 538.166C909.946 540.266 907.466 541.546 903.626 541.546C899.726 541.546 897.266 540.266 897.266 538.166C897.266 536.086 899.726 534.806 903.626 534.806ZM904.026 531.746H911.826V533.406H895.546V531.746H901.946V528.426H904.026V531.746ZM913.144 543.606L918.704 524.026H920.304L914.744 543.606H913.144ZM928.377 526.986V528.706C928.377 531.706 930.237 534.826 933.057 536.026L931.917 537.646C929.817 536.726 928.197 534.766 927.357 532.426C926.557 534.946 924.937 537.086 922.817 538.106L921.637 536.466C924.437 535.166 926.297 531.806 926.297 528.706V526.986H922.277V525.286H932.397V526.986H928.377ZM934.497 523.486H936.577V541.546H934.497V523.486ZM949.476 534.086H953.016V523.466H955.076V537.206H953.016V535.526H949.476V534.086ZM945.876 525.686C944.376 525.686 943.356 526.326 943.356 527.346C943.356 528.366 944.376 529.006 945.876 529.006C947.356 529.006 948.376 528.366 948.376 527.346C948.376 526.326 947.356 525.686 945.876 525.686ZM945.876 530.526C943.216 530.526 941.396 529.266 941.396 527.346C941.396 525.426 943.216 524.166 945.876 524.166C948.516 524.166 950.336 525.426 950.336 527.346C950.336 529.266 948.516 530.526 945.876 530.526ZM945.056 536.626V533.266C943.336 533.346 941.716 533.366 940.276 533.366L940.016 531.686C943.336 531.666 947.776 531.626 951.596 531.146L951.756 532.626C950.236 532.886 948.656 533.046 947.116 533.146V536.626H945.056ZM944.516 539.526H955.496V541.206H942.456V535.866H944.516V539.526ZM969.514 531.146L969.714 532.786C967.134 533.206 964.914 533.266 961.034 533.266H959.534V524.526H968.174V526.186H961.574V528.046H967.654V529.666H961.574V531.626C965.054 531.626 967.114 531.546 969.514 531.146ZM963.594 536.726V539.686H971.374V536.726H963.594ZM961.574 541.326V535.086H973.394V541.326H961.574ZM971.334 523.486H973.394V534.246H971.334V523.486Z" fill="#666666"/>
<path d="M1282.5 507.254C1282.5 554.775 1244.88 593.278 1198.5 593.278C1152.12 593.278 1114.5 554.775 1114.5 507.254C1114.5 459.733 1152.12 421.23 1198.5 421.23C1244.88 421.23 1282.5 459.733 1282.5 507.254Z" stroke="#D1D1D1"/>
<path d="M1195.42 530.666L1193.4 530.446C1193.86 528.666 1193.88 527.366 1193.88 526.006H1183.52V524.346H1195.92V525.866C1195.92 527.306 1195.92 528.806 1195.42 530.666ZM1189.72 539.966C1192.38 539.966 1193.98 539.306 1193.98 538.166C1193.98 537.046 1192.38 536.386 1189.72 536.386C1187.04 536.386 1185.4 537.046 1185.4 538.166C1185.4 539.306 1187.04 539.966 1189.72 539.966ZM1189.72 534.806C1193.56 534.806 1196.04 536.086 1196.04 538.166C1196.04 540.266 1193.56 541.546 1189.72 541.546C1185.82 541.546 1183.36 540.266 1183.36 538.166C1183.36 536.086 1185.82 534.806 1189.72 534.806ZM1190.12 531.746H1197.92V533.406H1181.64V531.746H1188.04V528.426H1190.12V531.746ZM1210.62 531.986L1209.62 533.586C1207.6 532.946 1206.16 531.646 1205.38 529.966C1204.58 531.886 1203.06 533.426 1200.9 534.166L1199.86 532.546C1202.7 531.566 1204.28 529.246 1204.28 526.786V526.426H1200.44V524.766H1210.14V526.426H1206.36V526.766C1206.36 529.006 1207.86 531.106 1210.62 531.986ZM1208.3 539.926C1210.82 539.926 1212.28 539.286 1212.28 538.126C1212.28 536.946 1210.82 536.326 1208.3 536.326C1205.78 536.326 1204.32 536.946 1204.32 538.126C1204.32 539.286 1205.78 539.926 1208.3 539.926ZM1208.3 534.706C1212.02 534.706 1214.32 535.966 1214.32 538.126C1214.32 540.266 1212.02 541.546 1208.3 541.546C1204.58 541.546 1202.28 540.266 1202.28 538.126C1202.28 535.966 1204.58 534.706 1208.3 534.706ZM1214.12 527.886H1216.68V529.586H1214.12V534.286H1212.06V523.486H1214.12V527.886ZM1166.17 566.006V551.326H1174.63V552.906H1168.03V557.866H1173.63V559.426H1168.03V566.006H1166.17ZM1178.78 566.266C1176.96 566.266 1175.6 565.146 1175.6 563.186C1175.6 560.826 1177.66 559.646 1182.28 559.126C1182.28 557.726 1181.82 556.386 1180.04 556.386C1178.78 556.386 1177.64 556.966 1176.78 557.546L1176.06 556.286C1177.06 555.646 1178.6 554.866 1180.34 554.866C1182.98 554.866 1184.1 556.646 1184.1 559.326V566.006H1182.6L1182.44 564.706H1182.38C1181.34 565.566 1180.12 566.266 1178.78 566.266ZM1179.3 564.806C1180.36 564.806 1181.22 564.306 1182.28 563.366V560.326C1178.62 560.766 1177.38 561.666 1177.38 563.066C1177.38 564.306 1178.22 564.806 1179.3 564.806ZM1191.85 566.266C1188.97 566.266 1186.75 564.186 1186.75 560.586C1186.75 556.966 1189.21 554.866 1191.99 554.866C1193.41 554.866 1194.39 555.466 1195.17 556.146L1194.23 557.346C1193.59 556.786 1192.93 556.386 1192.07 556.386C1190.09 556.386 1188.65 558.086 1188.65 560.586C1188.65 563.086 1190.01 564.746 1192.01 564.746C1193.01 564.746 1193.89 564.286 1194.57 563.666L1195.37 564.886C1194.39 565.766 1193.15 566.266 1191.85 566.266ZM1200.95 566.266C1198.63 566.266 1197.85 564.806 1197.85 562.646V556.626H1196.23V555.246L1197.93 555.146L1198.15 552.086H1199.67V555.146H1202.61V556.626H1199.67V562.686C1199.67 564.026 1200.09 564.786 1201.35 564.786C1201.73 564.786 1202.23 564.646 1202.59 564.506L1202.95 565.866C1202.33 566.066 1201.61 566.266 1200.95 566.266ZM1209 566.266C1206.34 566.266 1203.96 564.186 1203.96 560.586C1203.96 556.966 1206.34 554.866 1209 554.866C1211.66 554.866 1214.04 556.966 1214.04 560.586C1214.04 564.186 1211.66 566.266 1209 566.266ZM1209 564.746C1210.88 564.746 1212.16 563.086 1212.16 560.586C1212.16 558.086 1210.88 556.386 1209 556.386C1207.12 556.386 1205.86 558.086 1205.86 560.586C1205.86 563.086 1207.12 564.746 1209 564.746ZM1216.9 566.006V555.146H1218.4L1218.56 557.126H1218.62C1219.38 555.746 1220.48 554.866 1221.7 554.866C1222.18 554.866 1222.52 554.926 1222.86 555.106L1222.52 556.706C1222.16 556.566 1221.9 556.526 1221.46 556.526C1220.56 556.526 1219.44 557.166 1218.72 559.026V566.006H1216.9ZM1225.42 570.686C1224.9 570.686 1224.48 570.606 1224.14 570.466L1224.5 569.006C1224.72 569.086 1225.04 569.186 1225.32 569.186C1226.56 569.186 1227.34 568.186 1227.78 566.846L1228.02 566.026L1223.66 555.146H1225.56L1227.78 561.186C1228.1 562.126 1228.48 563.246 1228.82 564.226H1228.92C1229.22 563.246 1229.54 562.146 1229.84 561.186L1231.78 555.146H1233.56L1229.46 566.906C1228.72 569.046 1227.58 570.686 1225.42 570.686Z" fill="#666666"/>
<path d="M1183.87 510.838V461.469C1183.87 460.468 1184.68 459.641 1185.66 459.641H1212.44C1213.42 459.641 1214.23 460.468 1214.23 461.469V510.838" stroke="#666666" stroke-width="2" stroke-miterlimit="10" stroke-linecap="round" stroke-linejoin="round"/>
<path d="M1196.28 510.838V496.716H1201.81V510.838" stroke="#666666" stroke-width="2" stroke-miterlimit="10" stroke-linecap="round" stroke-linejoin="round"/>
<path d="M1180 510.838H1218.1" stroke="#666666" stroke-width="2" stroke-miterlimit="10" stroke-linecap="round" stroke-linejoin="round"/>
<path d="M1191.53 469.837H1195.1V475.627" stroke="#666666" stroke-width="2" stroke-miterlimit="10" stroke-linecap="round" stroke-linejoin="round"/>
<path d="M1201.65 469.837H1205.22V475.627" stroke="#666666" stroke-width="2" stroke-miterlimit="10" stroke-linecap="round" stroke-linejoin="round"/>
<path d="M1191.53 482.636H1195.1V488.426" stroke="#666666" stroke-width="2" stroke-miterlimit="10" stroke-linecap="round" stroke-linejoin="round"/>
<path d="M1201.65 482.636H1205.22V488.426" stroke="#666666" stroke-width="2" stroke-miterlimit="10" stroke-linecap="round" stroke-linejoin="round"/>
<line x1="653.5" y1="284.997" x2="653.5" y2="398.776" stroke="#D1D1D1" stroke-width="5" stroke-linecap="round" stroke-dasharray="1 10"/>
<line x1="382.5" y1="351.554" x2="382.5" y2="398.776" stroke="#D1D1D1" stroke-width="5" stroke-linecap="round" stroke-dasharray="1 10"/>
<line x1="928.5" y1="351.554" x2="928.5" y2="398.776" stroke="#D1D1D1" stroke-width="5" stroke-linecap="round" stroke-dasharray="1 10"/>
<line x1="1199.5" y1="351.554" x2="1199.5" y2="398.776" stroke="#D1D1D1" stroke-width="5" stroke-linecap="round" stroke-dasharray="1 10"/>
<line x1="109.5" y1="351.554" x2="109.5" y2="398.776" stroke="#D1D1D1" stroke-width="5" stroke-linecap="round" stroke-dasharray="1 10"/>
<line x1="1199.5" y1="344.386" x2="109.5" y2="344.386" stroke="#D1D1D1" stroke-width="5" stroke-linecap="round" stroke-dasharray="1 10"/>
</svg>
