<svg width="668" height="357" viewBox="0 0 668 357" fill="none" xmlns="http://www.w3.org/2000/svg">
<path d="M122.48 144.994H83.6797V86.794H38.8797V144.994H0.0796889V2.19401H38.8797V55.194H83.6797V2.19401H122.48V144.994ZM219.005 144.994H144.605V122.994L162.405 116.194V30.794L144.605 24.194V2.19401H219.005V24.194L201.205 30.794V116.194L219.005 122.994V144.994ZM334.691 101.594C334.691 109.327 332.691 116.661 328.691 123.594C324.824 130.527 318.757 136.194 310.491 140.594C302.357 144.861 291.757 146.994 278.691 146.994C272.157 146.994 266.424 146.661 261.491 145.994C256.691 145.461 252.157 144.527 247.891 143.194C243.624 141.861 239.224 140.127 234.691 137.994V103.594C242.424 107.461 250.224 110.461 258.091 112.594C265.957 114.594 273.091 115.594 279.491 115.594C283.357 115.594 286.491 115.127 288.891 114.194C291.291 113.261 293.091 111.994 294.291 110.394C295.491 108.794 296.091 106.994 296.091 104.994C296.091 102.461 295.224 100.327 293.491 98.594C291.757 96.8607 289.024 95.0607 285.291 93.194C281.557 91.3274 276.557 88.994 270.291 86.194C264.957 83.794 260.157 81.2607 255.891 78.594C251.624 75.9273 247.957 72.9273 244.891 69.594C241.957 66.2607 239.691 62.394 238.091 57.994C236.491 53.4607 235.691 48.1273 235.691 41.994C235.691 32.794 237.957 25.1273 242.491 18.994C247.024 12.7273 253.291 8.06068 261.291 4.99401C269.424 1.79401 278.824 0.194011 289.491 0.194011C298.824 0.194011 307.224 1.26068 314.691 3.39402C322.157 5.39402 328.824 7.72735 334.691 10.394L322.891 40.194C316.757 37.394 310.691 35.194 304.691 33.594C298.824 31.8607 293.357 30.994 288.291 30.994C284.957 30.994 282.224 31.394 280.091 32.194C277.957 32.994 276.357 34.1273 275.291 35.594C274.357 36.9273 273.891 38.4607 273.891 40.194C273.891 42.4607 274.757 44.4607 276.491 46.194C278.224 47.9273 281.091 49.8607 285.091 51.994C289.224 53.994 294.824 56.594 301.891 59.794C308.824 62.8607 314.691 66.2607 319.491 69.994C324.424 73.594 328.157 77.9273 330.691 82.994C333.357 87.9274 334.691 94.1274 334.691 101.594ZM204.291 354.994H165.691V243.794H130.891V212.194H239.091V243.794H204.291V354.994ZM389.148 283.394C389.148 294.461 387.815 304.527 385.148 313.594C382.482 322.527 378.348 330.261 372.748 336.794C367.148 343.327 359.948 348.327 351.148 351.794C342.482 355.261 332.015 356.994 319.748 356.994C307.748 356.994 297.348 355.261 288.548 351.794C279.882 348.327 272.682 343.327 266.948 336.794C261.348 330.261 257.148 322.527 254.348 313.594C251.682 304.527 250.348 294.394 250.348 283.194C250.348 268.394 252.815 255.527 257.748 244.594C262.682 233.527 270.282 224.994 280.548 218.994C290.815 212.994 303.948 209.994 319.948 209.994C336.215 209.994 349.415 213.061 359.548 219.194C369.815 225.194 377.282 233.727 381.948 244.794C386.748 255.727 389.148 268.594 389.148 283.394ZM290.948 283.394C290.948 291.927 291.882 299.327 293.748 305.594C295.748 311.727 298.882 316.461 303.148 319.794C307.415 323.127 312.948 324.794 319.748 324.794C326.815 324.794 332.415 323.127 336.548 319.794C340.815 316.461 343.882 311.727 345.748 305.594C347.615 299.327 348.548 291.927 348.548 283.394C348.548 270.461 346.415 260.261 342.148 252.794C337.882 245.327 330.482 241.594 319.948 241.594C313.015 241.594 307.415 243.327 303.148 246.794C298.882 250.127 295.748 254.927 293.748 261.194C291.882 267.327 290.948 274.727 290.948 283.394ZM461.723 212.194C474.657 212.194 485.39 213.794 493.923 216.994C502.59 220.194 509.057 224.927 513.323 231.194C517.723 237.327 519.923 245.061 519.923 254.394C519.923 260.127 518.923 265.394 516.923 270.194C515.057 274.994 512.323 279.261 508.723 282.994C505.123 286.727 500.79 289.994 495.723 292.794L537.323 354.994H493.523L463.323 302.994H453.523V354.994H414.923V212.194H461.723ZM461.123 241.394H453.523V273.994H460.723C464.723 273.994 468.19 273.461 471.123 272.394C474.19 271.194 476.59 269.327 478.323 266.794C480.057 264.127 480.923 260.594 480.923 256.194C480.923 253.127 480.257 250.527 478.923 248.394C477.59 246.127 475.457 244.394 472.523 243.194C469.59 241.994 465.79 241.394 461.123 241.394ZM601.275 265.194L625.875 212.194H667.675L620.675 299.194V354.994H581.875V300.394L534.875 212.194H576.875L601.275 265.194Z" fill="#F4F4F4"/>
</svg>
