<svg width="36" height="37" viewBox="0 0 36 37" fill="none" xmlns="http://www.w3.org/2000/svg">
<g id="Group 67">
<ellipse id="Ellipse 10" cx="18" cy="18.5569" rx="18" ry="18.4311" fill="#F44646"/>
<path id="Vector" d="M27.9172 25.3189C27.928 25.2976 27.9394 25.2763 27.948 25.254C27.9572 25.2306 27.9637 25.2071 27.9702 25.1832C27.9762 25.1614 27.9827 25.1395 27.987 25.1166C27.9919 25.09 27.9935 25.0634 27.9951 25.0368C27.9962 25.0208 28 25.0054 28 24.9894V13.1478C28 13.1351 27.9967 13.1228 27.9962 13.1101C27.9951 13.084 27.9924 13.0579 27.9881 13.0318C27.9843 13.0089 27.9794 12.9865 27.974 12.9647C27.9681 12.9413 27.9605 12.9179 27.9518 12.895C27.9431 12.8721 27.9339 12.8503 27.9231 12.8284C27.9128 12.8077 27.902 12.7874 27.8895 12.7678C27.876 12.7454 27.8608 12.7246 27.8446 12.7039C27.8365 12.6938 27.8311 12.682 27.8224 12.6719C27.8159 12.6645 27.8078 12.6592 27.8013 12.6517C27.7834 12.6325 27.7645 12.6155 27.745 12.5985C27.7276 12.583 27.7098 12.5681 27.6914 12.5548C27.6713 12.5404 27.6502 12.5282 27.6291 12.516C27.6085 12.5042 27.5885 12.4925 27.5668 12.4829C27.5446 12.4728 27.5213 12.4648 27.4981 12.4569C27.4759 12.4494 27.4537 12.442 27.4304 12.4361C27.4071 12.4308 27.3833 12.427 27.3594 12.4233C27.334 12.4196 27.3091 12.4169 27.2836 12.4159C27.2728 12.4159 27.2636 12.4132 27.2533 12.4132H8.74722C8.73693 12.4132 8.72718 12.4159 8.71635 12.4164C8.69036 12.4175 8.66492 12.4201 8.63947 12.4239C8.61564 12.427 8.59236 12.4308 8.56962 12.4361C8.54579 12.442 8.52305 12.4494 8.50031 12.4574C8.47757 12.4654 8.45537 12.4734 8.43317 12.4829C8.41151 12.4931 8.39094 12.5048 8.36982 12.517C8.3487 12.5293 8.32813 12.5415 8.30863 12.5553C8.28968 12.5687 8.27236 12.5836 8.25449 12.599C8.23499 12.6166 8.21604 12.6341 8.19818 12.6533C8.19114 12.6608 8.18301 12.6661 8.17652 12.6735C8.16839 12.6831 8.16298 12.6943 8.1554 12.7039C8.13916 12.7246 8.12399 12.7465 8.10992 12.7688C8.098 12.789 8.08718 12.8087 8.07689 12.829C8.06606 12.8508 8.05631 12.8737 8.04765 12.8966C8.03953 12.9195 8.03195 12.9418 8.02599 12.9653C8.02003 12.9876 8.01516 13.01 8.01137 13.0334C8.00704 13.0589 8.00487 13.0845 8.00325 13.1106C8.00325 13.1228 8 13.1351 8 13.1478V24.9894C8 25.0059 8.00379 25.0208 8.00487 25.0368C8.0065 25.0634 8.00812 25.0895 8.013 25.1156C8.01733 25.139 8.02328 25.1614 8.02978 25.1837C8.03628 25.2071 8.04278 25.23 8.05144 25.2529C8.06064 25.2763 8.07201 25.2982 8.08339 25.32C8.09367 25.3402 8.10396 25.3605 8.11641 25.3802C8.13103 25.403 8.14782 25.4238 8.16515 25.4451C8.17489 25.4573 8.18247 25.4707 8.1933 25.4829C8.19709 25.4872 8.20197 25.4898 8.20576 25.4941C8.2285 25.518 8.25449 25.5388 8.28048 25.5596C8.29456 25.5707 8.30755 25.5835 8.32217 25.5931C8.35087 25.6128 8.38227 25.6288 8.41422 25.6442C8.42721 25.6506 8.43967 25.6591 8.4532 25.665C8.49869 25.6841 8.54579 25.699 8.59507 25.7091H8.59561C8.64434 25.7193 8.69524 25.7246 8.74722 25.7246H27.2533C27.3578 25.7246 27.4569 25.7033 27.5473 25.6655C27.5603 25.6602 27.5728 25.6517 27.5858 25.6453C27.6177 25.6298 27.6491 25.6139 27.6784 25.5942C27.6935 25.584 27.7065 25.5713 27.7206 25.5596C27.7461 25.5393 27.771 25.5191 27.7937 25.4957C27.7975 25.4914 27.8024 25.4888 27.8062 25.4845C27.8175 25.4723 27.8256 25.4579 27.8359 25.4446C27.8522 25.4243 27.869 25.4041 27.883 25.3818C27.896 25.361 27.9063 25.3402 27.9172 25.3189ZM9.49444 14.7305L14.4921 18.8823L9.49444 23.3327V14.7305ZM18.0214 19.8916L10.7891 13.8825H25.219L18.0214 19.8916ZM15.6433 19.8389L17.54 21.4152C17.6792 21.5307 17.8508 21.5888 18.0225 21.5888C18.1947 21.5888 18.3668 21.5307 18.506 21.4142L20.3897 19.8416L25.3219 24.2548H10.6851L15.6433 19.8389ZM21.5387 18.8823L26.5061 14.7353V23.3274L21.5387 18.8823Z" fill="white"/>
</g>
</svg>
