<svg width="36" height="37" viewBox="0 0 36 37" fill="none" xmlns="http://www.w3.org/2000/svg">
<ellipse cx="18" cy="18.5569" rx="18" ry="18.4311" fill="#F44646"/>
<g clip-path="url(#clip0_85_356)">
<path d="M25.9861 22.3131L20.9573 20.9132C20.6861 20.838 20.3967 20.9155 20.198 21.1171L19.0062 22.3258C16.6078 20.9672 15.0435 18.6543 14.4518 17.665L15.681 16.3259C15.8565 16.1341 15.9278 15.8671 15.8718 15.6122L14.6596 10.1469C14.599 9.87362 14.4008 9.65313 14.1381 9.567C11.6328 8.7436 9.64603 10.3657 8.94113 11.3442C5.62613 16.0296 12.1118 23.4965 12.3898 23.8118C12.3994 23.8227 12.4096 23.8336 12.4203 23.8445C16.6033 28.0867 20.168 28.7964 22.0868 28.7964C22.9916 28.7964 23.5306 28.6385 23.5951 28.6184C23.6178 28.6115 23.6398 28.6035 23.6613 28.5943C25.4058 27.8725 26.4809 26.87 26.8575 25.6159C27.3336 24.0306 26.464 22.6915 26.4272 22.6352C26.323 22.4773 26.1661 22.3631 25.9861 22.3131ZM25.3588 25.1686C25.1261 25.9191 24.3498 26.5898 23.1133 27.1094C22.7 27.2162 18.7848 28.0482 13.5414 22.7398C11.8745 20.8357 8.06921 15.2947 10.2049 12.2767C10.2575 12.2055 11.4312 10.6448 13.2402 10.9692L14.2565 15.5525L12.9169 17.0115C12.6938 17.2544 12.644 17.6133 12.7917 17.9096C12.8772 18.0801 14.9246 22.115 18.8154 24.011C19.1143 24.1569 19.4716 24.0949 19.706 23.8571L20.981 22.564L25.2461 23.7515C25.3746 24.0489 25.5371 24.5933 25.3588 25.1686Z" fill="white"/>
</g>
<defs>
<clipPath id="clip0_85_356">
<rect width="19" height="19.4551" fill="white" transform="translate(8 9.34131)"/>
</clipPath>
</defs>
</svg>
