<svg xmlns="http://www.w3.org/2000/svg" width="18" height="22" viewBox="0 0 18 22" fill="none">
  <path d="M0 8.42921C0 4.21305 3.33599 0.797154 7.45353 0.796387C11.5703 0.797154 14.9056 4.21305 14.9071 8.42921C14.9063 12.6446 11.5703 16.0597 7.45353 16.0613C3.33599 16.0597 0 12.6446 0 8.42921ZM2.81222 8.42921C2.81671 11.0525 4.89084 13.1756 7.45353 13.1802C10.0155 13.1756 12.0896 11.0525 12.0933 8.42921C12.0889 5.80437 10.0147 3.6821 7.45353 3.67673C4.89084 3.6821 2.81671 5.80437 2.81222 8.42921Z" fill="#676767"/>
  <path d="M15.4699 20.9556L10.4067 14.044C9.93984 13.4072 10.0665 12.5064 10.6884 12.0284C11.3089 11.5512 12.1908 11.6808 12.6569 12.3177L17.7186 19.2293C18.1847 19.8646 18.0588 20.7669 17.4376 21.2441C17.1843 21.439 16.8883 21.5334 16.5953 21.5334C16.1675 21.5326 15.7456 21.3323 15.4699 20.9556Z" fill="#676767"/>
</svg>